<?xml version="1.0" encoding="UTF-8"?>
<svg width="38px" height="24px" viewBox="0 0 38 24" version="1.1" xmlns="http://www.w3.org/2000/svg" xmlns:xlink="http://www.w3.org/1999/xlink">
    <!-- Generator: Sketch 54 (76480) - https://sketchapp.com -->
    <title>Group</title>
    <desc>Created with Sketch.</desc>
    <g id="Payments" stroke="none" stroke-width="1" fill="none" fill-rule="evenodd">
        <g id="BOB---Web-UI---Payments---Insta-Payment-Step-2" transform="translate(-1045.000000, -636.000000)">
            <g id="Group" transform="translate(1045.000000, 636.000000)">
                <g id="Group-825" stroke-linejoin="round" stroke-width="1.5">
                    <polyline id="Stroke-936" stroke="#3E5996" stroke-linecap="round" points="37.2083333 5.6 27.7083333 12 19.7916667 12"></polyline>
                    <polyline id="Stroke-937" stroke="#3E5996" stroke-linecap="round" points="37.2083333 8.8 27.7083333 15.2 19.7916667 15.2"></polyline>
                    <polyline id="Stroke-938" stroke="#3E5996" stroke-linecap="round" points="37.2083333 12 27.7083333 18.4 19.7916667 18.4"></polyline>
                    <polyline id="Stroke-939" stroke="#3E5996" stroke-linecap="round" points="37.2083333 15.2 27.7083333 21.6 19.7916667 21.6"></polyline>
                    <path d="M8.70833333,12 L0.791666667,12" id="Stroke-941" stroke="#3E5996" stroke-linecap="round"></path>
                    <path d="M8.70833333,15.2 L0.791666667,15.2" id="Stroke-942" stroke="#3E5996" stroke-linecap="round"></path>
                    <path d="M8.70833333,18.4 L0.791666667,18.4" id="Stroke-943" stroke="#3E5996" stroke-linecap="round"></path>
                    <path d="M8.70833333,21.6 L0.791666667,21.6" id="Stroke-944" stroke="#3E5996" stroke-linecap="round"></path>
                    <polyline id="Stroke-945" stroke="#3E5996" points="27.1810833 2.4 37.2083333 2.4 27.7083333 8.8 19.7916667 8.8"></polyline>
                    <polyline id="Stroke-946" stroke="#3E5996" points="8.70833333 8.8 0.791666667 8.8 10.2916667 2.4 16.09775 2.4"></polyline>
                    <polygon id="Stroke-940" stroke="#DF5435" stroke-linecap="round" points="19.7916667 23.2 8.70833333 23.2 8.70833333 8 18.2083333 0.8 29.2916667 0.8 19.7916667 8"></polygon>
                </g>
                <path d="M11.4295387,14.0840336 L14.837994,14.0840336 C14.7813199,13.5910364 14.5546234,13.1876751 14.1295675,12.8739496 C13.6336689,12.5154062 12.996085,12.3473389 12.2026473,12.3473389 L11.3559072,12.3473389 C11.2862876,12.3473389 11.2298498,12.2909011 11.2298498,12.2212815 C11.2298498,12.2049559 11.233021,12.1887858 11.2391872,12.1736695 L11.2391872,12.1736695 C11.2820274,12.0686474 11.3841689,12 11.4975925,12 L17.2263152,12 C17.2943697,12 17.3495388,12.0551691 17.3495388,12.1232236 C17.3495388,12.1406125 17.3458585,12.1578045 17.3387397,12.1736695 L17.3387397,12.1736695 C17.2913226,12.2793443 17.1862869,12.3473389 17.0704613,12.3473389 L14.0020507,12.3473389 C14.8521626,12.7282913 15.3197241,13.3109244 15.3763982,14.0840336 L17.1382957,14.0840336 C17.2049194,14.0840336 17.2589286,14.1380428 17.2589286,14.2046665 C17.2589286,14.2230504 17.2547269,14.2411912 17.2466443,14.2577031 L17.2466443,14.2577031 C17.1946175,14.3639886 17.0866093,14.4313725 16.9682734,14.4313725 L15.3905667,14.4313725 C15.3338926,14.9355742 15.0646905,15.3501401 14.5546234,15.6862745 C14.0445563,16 13.3928039,16.2016807 12.6277032,16.2689076 C12.8543997,16.3809524 13.1661074,16.6386555 13.5344892,17.0308123 L16.0819993,19.7270834 C16.1433682,19.7920359 16.1404631,19.8944398 16.0755106,19.9558087 C16.0454735,19.9841886 16.0057159,20 15.9643922,20 L15.7996846,20 C15.6653676,20 15.5371952,19.9437221 15.4462977,19.8448349 L13.0244221,17.210084 C12.7127144,16.8739496 12.4435123,16.6386555 12.2309843,16.5266106 C11.9476137,16.3921569 11.5934004,16.3137255 11.1683445,16.3137255 L11.1683445,16.3137255 C11.1683445,16.1157074 11.3288699,15.9551821 11.5268879,15.9551821 L11.8059284,15.9551821 C12.7693885,15.9551821 13.5344892,15.7871148 14.0728934,15.4733894 C14.5404549,15.2044818 14.7954884,14.8571429 14.837994,14.4313725 L11.2736848,14.4313725 C11.2056303,14.4313725 11.1504612,14.3762034 11.1504612,14.3081489 C11.1504612,14.29076 11.1541415,14.273568 11.1612603,14.2577031 L11.1612603,14.2577031 C11.2086774,14.1520282 11.3137131,14.0840336 11.4295387,14.0840336 Z" id="₹" stroke="#3E5996" stroke-width="0.6" fill="#000000"></path>
            </g>
        </g>
    </g>
</svg>