<?xml version="1.0" encoding="UTF-8"?>
<svg width="38px" height="33px" viewBox="0 0 38 33" version="1.1" xmlns="http://www.w3.org/2000/svg" xmlns:xlink="http://www.w3.org/1999/xlink">
    <!-- Generator: Sketch 54 (76480) - https://sketchapp.com -->
    <title>Group 6</title>
    <desc>Created with Sketch.</desc>
    <g id="Styleguide" stroke="none" stroke-width="1" fill="none" fill-rule="evenodd" opacity="0.8" stroke-linecap="round">
        <g id="UI-StyleGuide" transform="translate(-953.000000, -649.000000)" stroke="#000000" stroke-width="1.5">
            <g id="Group-6" transform="translate(954.000000, 650.000000)">
                <path d="M0,22.1052632 C0,22.9768421 0.699652174,23.6842105 1.56521739,23.6842105 L4.69565217,23.6842105 L4.69565217,30 L10.9565217,23.6842105 L34.4347826,23.6842105 C35.2987826,23.6842105 36,22.9768421 36,22.1052632 L36,1.57894737 C36,0.705789474 35.2987826,0 34.4347826,0 L1.56521739,0 C0.699652174,0 0,0.705789474 0,1.57894737 L0,22.1052632 L0,22.1052632 Z" id="Stroke-245"></path>
                <g id="Group-11" transform="translate(10.500000, 12.000000)">
                    <path d="M1.5,0.75 C1.5,1.164 1.164,1.5 0.75,1.5 C0.336,1.5 0,1.164 0,0.75 C0,0.336 0.336,0 0.75,0 C1.164,0 1.5,0.336 1.5,0.75 L1.5,0.75 Z" id="Stroke-246"></path>
                    <path d="M16.5,0.75 C16.5,1.164 16.164,1.5 15.75,1.5 C15.336,1.5 15,1.164 15,0.75 C15,0.336 15.336,0 15.75,0 C16.164,0 16.5,0.336 16.5,0.75 L16.5,0.75 Z" id="Stroke-247"></path>
                    <path d="M9,0.75 C9,1.164 8.664,1.5 8.25,1.5 C7.836,1.5 7.5,1.164 7.5,0.75 C7.5,0.336 7.836,0 8.25,0 C8.664,0 9,0.336 9,0.75 L9,0.75 Z" id="Stroke-248"></path>
                </g>
            </g>
        </g>
    </g>
</svg>