<?xml version="1.0" encoding="UTF-8"?>
<svg width="32px" height="27px" viewBox="0 0 32 27" version="1.1" xmlns="http://www.w3.org/2000/svg" xmlns:xlink="http://www.w3.org/1999/xlink">
    <!-- Generator: Sketch 54 (76480) - https://sketchapp.com -->
    <title>Group 36</title>
    <desc>Created with Sketch.</desc>
    <g id="Styleguide" stroke="none" stroke-width="1" fill="none" fill-rule="evenodd" stroke-linecap="round" stroke-linejoin="round" stroke-opacity="0.8">
        <g id="UI-StyleGuide" transform="translate(-592.000000, -739.000000)" stroke="#000000" stroke-width="1.5">
            <g id="Group-36" transform="translate(593.000000, 740.000000)">
                <path d="M24.397,7.860125 C27.44575,10.065125 29.3745,12.500125 29.3745,12.500125 C29.3745,12.500125 22.9395,20.625125 14.9995,20.625125 C13.70075,20.625125 12.44325,20.408875 11.247,20.045125" id="Stroke-194"></path>
                <path d="M5.58475,17.1265 C2.546,14.92525 0.62475,12.50025 0.62475,12.50025 C0.62475,12.50025 7.061,4.37525 14.99975,4.37525 C16.07475,4.37525 17.12225,4.524 18.12975,4.7815" id="Stroke-195"></path>
                <path d="M10,12.5 C10,9.7375 12.23875,7.5 15,7.5" id="Stroke-196"></path>
                <path d="M20,12.5 C20,15.2625 17.76125,17.5 15,17.5" id="Stroke-197"></path>
                <path d="M27.1875,0.3125 L2.8125,24.6875" id="Stroke-198"></path>
            </g>
        </g>
    </g>
</svg>