<?xml version="1.0" encoding="UTF-8"?>
<svg width="32px" height="20px" viewBox="0 0 32 20" version="1.1" xmlns="http://www.w3.org/2000/svg" xmlns:xlink="http://www.w3.org/1999/xlink">
    <!-- Generator: Sketch 54 (76480) - https://sketchapp.com -->
    <title>Group 37</title>
    <desc>Created with Sketch.</desc>
    <g id="Styleguide" stroke="none" stroke-width="1" fill="none" fill-rule="evenodd" stroke-linecap="round" stroke-linejoin="round" stroke-opacity="0.8">
        <g id="UI-StyleGuide" transform="translate(-1036.000000, -655.000000)" stroke="#000000" stroke-width="1.5">
            <g id="Group-37" transform="translate(1037.000000, 656.000000)">
                <path d="M29.375,9 C29.375,9 22.94,17.3571429 15,17.3571429 C7.06,17.3571429 0.625,9 0.625,9 C0.625,9 7.06,0.642857143 15,0.642857143 C22.94,0.642857143 29.375,9 29.375,9 L29.375,9 Z" id="Stroke-130"></path>
                <path d="M20,9 C20,11.8414286 17.76125,14.1428571 15,14.1428571 C12.23875,14.1428571 10,11.8414286 10,9 C10,6.15857143 12.23875,3.85714286 15,3.85714286 C17.76125,3.85714286 20,6.15857143 20,9 L20,9 Z" id="Stroke-131"></path>
            </g>
        </g>
    </g>
</svg>