<?xml version="1.0" encoding="UTF-8"?>
<svg width="50px" height="50px" viewBox="0 0 50 50" version="1.1" xmlns="http://www.w3.org/2000/svg" xmlns:xlink="http://www.w3.org/1999/xlink">
    <!-- Generator: Sketch 55.2 (78181) - https://sketchapp.com -->
    <title>frown-face</title>
    <desc>Created with Sketch.</desc>
    <g id="Page-1" stroke="none" stroke-width="1" fill="none" fill-rule="evenodd">
        <g id="Pixel-3" transform="translate(-175.000000, -155.000000)" fill="#F5F5F5" fill-rule="nonzero">
            <g id="frown-face" transform="translate(175.000000, 155.000000)">
                <path d="M25,3.125 C37.1875,3.125 46.875,12.8125 46.875,25 C46.875,37.1875 37.1875,46.875 25,46.875 C12.8125,46.875 3.125,37.1875 3.125,25 C3.125,12.8125 12.8125,3.125 25,3.125 Z M25,0 C11.25,0 0,11.25 0,25 C0,38.75 11.25,50 25,50 C38.75,50 50,38.75 50,25 C50,11.25 38.75,0 25,0 L25,0 Z" id="Shape"></path>
                <path d="M23,19.5 C23,21.432 21.432,23 19.5,23 C17.568,23 16,21.432 16,19.5 C16,17.568 17.568,16 19.5,16 C21.432,16 23,17.568 23,19.5 Z" id="Path"></path>
                <path d="M35,19.5 C35,21.432 33.432,23 31.5,23 C29.568,23 28,21.432 28,19.5 C28,17.568 29.568,16 31.5,16 C33.432,16 35,17.568 35,19.5 Z" id="Path"></path>
                <path d="M35.4634146,38 C33.2439024,34.4642857 29.1219512,32.2142857 25,32.2142857 C20.8780488,32.2142857 16.7560976,34.4642857 14.5365854,38 L12,36.0714286 C14.8536585,31.5714286 19.6097561,29 25,29 C30.3902439,29 35.1463415,31.5714286 38,36.0714286 L35.4634146,38 L35.4634146,38 Z" id="Path"></path>
            </g>
        </g>
    </g>
</svg>