<?xml version="1.0" encoding="UTF-8"?>
<svg width="44px" height="44px" viewBox="0 0 44 44" version="1.1" xmlns="http://www.w3.org/2000/svg" xmlns:xlink="http://www.w3.org/1999/xlink">
    <!-- Generator: Sketch 55.2 (78181) - https://sketchapp.com -->
    <title>help</title>
    <desc>Created with Sketch.</desc>
    <defs>
        <linearGradient x1="100%" y1="50%" x2="0%" y2="50%" id="linearGradient-1">
            <stop stop-color="#173F85" offset="0%"></stop>
            <stop stop-color="#3BBAE6" offset="100%"></stop>
        </linearGradient>
    </defs>
    <g id="Page-1" stroke="none" stroke-width="1" fill="none" fill-rule="evenodd">
        <g id="Pixel-3" transform="translate(-258.000000, -158.000000)" fill="url(#linearGradient-1)" fill-rule="nonzero">
            <g id="help" transform="translate(258.000000, 158.000000)">
                <path d="M43.2023926,16.1116028 C42.6894531,14.2605896 41.933136,12.4824219 40.9542542,10.8247681 C39.019989,7.55041504 36.2562256,4.81753542 32.9620667,2.9208679 C31.3292542,1.98159792 29.5812988,1.25549316 27.7665405,0.763702414 C25.8953857,0.257141156 23.9560852,0 22,0 C20.5071716,0 19.0153503,0.150390625 17.5664978,0.446807883 C16.1535645,0.736511188 14.7641296,1.16720579 13.4364624,1.72915652 C12.1326294,2.28070064 10.8754577,2.9631653 9.69985964,3.75708008 C8.5343323,4.54428098 7.43963619,5.44863894 6.44363405,6.44363405 C5.44830327,7.43862917 4.54428098,8.5343323 3.75708008,9.69985964 C2.9631653,10.8754577 2.28070064,12.1326294 1.72915652,13.4361267 C1.16687012,14.7641296 0.736511188,16.1535645 0.446807883,17.5664978 C0.150390625,19.0153503 0,20.5071716 0,22 C0,24.2894287 0.350463867,26.5469665 1.04232786,28.7091674 C1.71203613,30.8008728 2.69158931,32.7774353 3.9541321,34.5838013 C3.97628782,34.6173706 4.00213619,34.6492615 4.03033452,34.6784668 C4.10687252,34.7550049 4.20153809,34.811737 4.30560298,34.8426208 L4.30728152,34.8432923 C4.30895996,34.8432923 4.31063841,34.8442994 4.31332395,34.8449707 C4.37777708,34.8630982 4.44458008,34.8718262 4.51272585,34.8691406 L4.52212527,34.8684693 C4.61813352,34.8641052 4.70944212,34.8382568 4.79370117,34.7926025 C4.79437252,34.7926025 4.79537962,34.7915954 4.79537962,34.7915954 L4.80041504,34.7892456 C4.87527468,34.7479553 4.9397278,34.6939087 4.99310298,34.6267701 L4.99813841,34.6207275 C5.03506472,34.5727234 5.06594851,34.5193482 5.08843998,34.4626159 C5.11932369,34.3833923 5.13476563,34.3001404 5.13375852,34.21521 L5.13375852,34.2135315 C5.13375852,34.2125244 5.13375852,34.210846 5.13375852,34.210846 C5.13140873,34.0940247 5.0968323,33.9788818 5.03338619,33.8791809 C5.02734375,33.8697815 5.02062988,33.859375 5.01257324,33.8489685 C2.5771179,30.3634643 1.2890625,26.2659912 1.2890625,22 C1.2890625,16.4691162 3.44354244,11.2672119 7.35537722,7.35537722 C11.268219,3.44354244 16.4691162,1.2890625 22,1.2890625 C25.6231384,1.2890625 29.1878662,2.23773189 32.3091431,4.03302006 L32.3185424,4.03839116 C38.7286072,7.73001101 42.7109375,14.6127319 42.7109375,22 C42.7109375,27.5308838 40.5564576,32.731781 36.6446228,36.6446228 C32.7327881,40.5564576 27.5318909,42.7109375 22,42.7109375 C17.7460938,42.7109375 13.6580201,41.429596 10.1775513,39.0052185 C9.98687748,38.8729553 9.72973633,38.8541565 9.52194212,38.9572143 L2.10211186,42.6471557 C2.01449583,42.6901245 1.93359375,42.7099304 1.84664915,42.7109375 L1.8449707,42.7109375 C1.70666504,42.7109375 1.56500248,42.6488343 1.45758061,42.5414124 C1.35015873,42.4333191 1.2880554,42.2916565 1.2890625,42.1523438 C1.2900696,42.0653991 1.31054688,41.9838256 1.35351562,41.8962097 L3.90679936,36.8171692 C3.98400879,36.6634216 3.99710085,36.4888611 3.94271848,36.3257141 C3.88867188,36.1625671 3.77453613,36.0292969 3.62045286,35.9517517 C3.52947994,35.9064331 3.43246458,35.8829346 3.33175657,35.8829346 C3.08602903,35.8829346 2.86514284,36.0195618 2.75503542,36.2387695 L0.202087359,41.316803 C0.0694885469,41.5799866 0,41.8686829 0,42.1523438 C0.00503540469,42.645813 0.198394797,43.1080628 0.544830344,43.4541626 C0.891265891,43.8005982 1.35351562,43.9949646 1.84664915,44 L1.8493347,44 C2.12963867,44 2.41497798,43.9311829 2.67514036,43.8016052 L9.75726314,40.2798462 C13.3837585,42.713623 17.6171875,44 22,44 C23.4928284,44 24.9846497,43.8496094 26.4335022,43.5531921 C27.8464355,43.2634888 29.2358704,42.8331299 30.5635376,42.2708435 C31.8673706,41.7192994 33.1245423,41.0368347 34.3001404,40.2429199 C35.4656677,39.455719 36.5603638,38.5513611 37.5563659,37.5563659 C38.5516967,36.5603638 39.455719,35.4656677 40.2429199,34.3001404 C41.0368347,33.1245423 41.7192994,31.8673706 42.2711792,30.5635376 C42.8321228,29.2358704 43.2634888,27.8464355 43.5531921,26.4335022 C43.8496094,24.9846497 44,23.4928284 44,22 C44,20.0012818 43.731781,18.0193482 43.2023926,16.1116028 L43.2023926,16.1116028 Z" id="Path"></path>
                <path d="M9.54242368,20.2349806 C9.27596999,20.3013411 9.0802562,20.5297293 9.05532875,20.8032562 C8.98155708,21.6103625 8.98155708,22.3884991 9.05532875,23.1969528 C9.0802562,23.4704797 9.27596999,23.6988679 9.54242368,23.7652285 L10.7402866,24.0653669 C10.8507757,24.6690124 11.0111194,25.267605 11.2162653,25.8446388 L10.3279739,26.7042946 C10.1305757,26.8949549 10.0753312,27.1907142 10.1908731,27.4399874 C10.5257088,28.1659115 10.9292633,28.862866 11.3897466,29.5129976 C11.5436901,29.7306063 11.8236182,29.8370527 12.0951247,29.7605865 L13.2869242,29.4196885 C13.6982264,29.901729 14.1233397,30.326841 14.5855072,30.7202885 L14.2456187,31.9093891 C14.169826,32.1731471 14.2698724,32.4561059 14.4942191,32.614765 C15.1433421,33.0752468 15.8419832,33.4787999 16.5682466,33.8136345 C16.8131414,33.9264811 17.1166495,33.8685419 17.3036049,33.6755236 L18.1636005,32.7862245 C18.7386151,32.990696 19.3361991,33.149355 19.9391727,33.2598436 L20.2389754,34.4583763 C20.305673,34.7248292 20.5340619,34.9205424 20.8082634,34.944796 C21.6029086,35.01722 22.3817216,35.0199148 23.2039892,34.9437854 C23.47718,34.9188581 23.7059058,34.7231449 23.7729403,34.4566921 L24.0730797,33.2581594 C24.6733586,33.1476707 25.2702689,32.9880011 25.8452835,32.7838665 L26.7042684,33.6718182 C26.891224,33.8651734 27.1957425,33.922102 27.4406375,33.8092553 C28.156795,33.4777893 28.843983,33.0853524 29.5163492,32.607691 C29.7396853,32.449032 29.8387212,32.16641 29.763939,31.9023151 L29.4230399,30.7122039 C29.8872286,30.3163984 30.3227845,29.880844 30.7175807,29.4180042 L31.9066852,29.7575548 C32.1852658,29.8353685 32.4611516,29.7238692 32.6120634,29.5103027 C33.0735573,28.8591606 33.4781223,28.1605218 33.8136318,27.4319029 C33.928163,27.1826297 33.8729186,26.8868704 33.6755204,26.69621 L32.7862184,25.8365542 C32.9906905,25.2632259 33.14935,24.6680018 33.2588286,24.0677249 L34.457702,23.7679233 C34.7241557,23.7012258 34.9195327,23.4728377 34.9447969,23.1996477 C35.0178949,22.398268 35.0189054,21.6268684 34.9447969,20.8005613 C34.9195327,20.5270345 34.7238189,20.2986463 34.457702,20.2312751 L33.2588286,19.9318104 C33.1486764,19.3318704 32.9896799,18.7369832 32.7862184,18.1633179 L33.6755204,17.3036621 C33.8729186,17.1119912 33.928163,16.8172425 33.8136318,16.5679692 C33.4781223,15.840024 33.0735573,15.1407115 32.6120634,14.4895695 C32.4614884,14.2763398 32.1856027,14.1641668 31.9066852,14.2423173 L30.7175807,14.5818679 C30.3217739,14.1186913 29.886218,13.6831369 29.4230399,13.2873314 L29.763939,12.0965465 C29.8387212,11.8334622 29.7396853,11.5498296 29.5163492,11.3921811 C28.8668892,10.9306888 28.168585,10.5261251 27.4406375,10.1899431 C27.1957425,10.0777702 26.891224,10.1346988 26.7042684,10.328054 L25.8452835,11.2163425 C25.2702689,11.0118711 24.6743692,10.8515277 24.0730797,10.7420496 L23.7729403,9.54318013 C23.7059058,9.27672724 23.47718,9.08101409 23.2046629,9.05608681 C22.3965433,8.98130479 21.5954978,8.98164163 20.8075897,9.05507622 C20.5340619,9.0800035 20.305673,9.27605357 20.2389754,9.54250637 L19.9391727,10.7400285 C19.3361991,10.8498435 18.7386151,11.0085025 18.1636005,11.2136476 L17.3036049,10.3243486 C17.1075543,10.1212245 16.8131414,10.0737279 16.5682466,10.1865745 C15.8419832,10.5210723 15.1443527,10.9236149 14.4932085,11.3851072 C14.2698724,11.5437662 14.169826,11.8267251 14.2456187,12.0904831 L14.5855072,13.2795837 C14.1199711,13.6763997 13.6817204,14.1136385 13.2852399,14.579173 L12.0951247,14.2396225 C11.8236182,14.1624825 11.5433533,14.2696027 11.3897466,14.4868746 C10.9292633,15.1363324 10.5257088,15.8339606 10.1908731,16.5602216 C10.0753312,16.809158 10.1305757,17.1052541 10.3279739,17.2955775 L11.2162653,18.1555702 C11.0111194,18.7322672 10.8507757,19.3308598 10.7402866,19.9345053 L9.54242368,20.2349806 Z M11.4682342,21.0858781 C11.7232348,21.0222123 11.9132221,20.8116775 11.95095,20.5506143 C12.0648076,19.75294 12.2743326,18.9707611 12.572114,18.2266468 C12.6701394,17.9814159 12.6115262,17.7048573 12.4218759,17.5209341 L11.5639016,16.6915953 C11.7528782,16.3213909 11.9630769,15.9585972 12.1891078,15.6116359 L13.3377896,15.9404071 C13.5843687,16.0111467 13.8646336,15.9198589 14.0232932,15.718756 C14.5208307,15.088162 15.0934873,14.5165179 15.7247571,14.0189821 C15.9315871,13.8559439 16.0188331,13.587133 15.9464088,13.3334806 L15.6176365,12.1848027 C15.9652728,11.9587725 16.3290782,11.7485745 16.6992838,11.560609 L17.5296359,12.4185805 C17.7064858,12.6014932 17.9756343,12.6702118 18.2340035,12.5694919 C18.9784572,12.2720483 19.7589544,12.0642083 20.5546102,11.9503511 C20.8160111,11.9132969 21.0265467,11.7236472 21.0902126,11.4673 L21.3799095,10.3102006 C21.7982856,10.2876313 22.2146406,10.2876313 22.6313325,10.3108743 L22.9210295,11.4683106 C22.9846954,11.7243209 23.1952309,11.9139706 23.4566318,11.9520354 C24.2516139,12.0658926 25.0311006,12.2754169 25.773533,12.5718499 C26.013375,12.6685274 26.2997034,12.606546 26.4789112,12.4219491 L27.3085896,11.5639776 C27.6804795,11.7536274 28.0442849,11.9648359 28.3919211,12.1908661 L28.0631489,13.3405546 L28.0570854,13.3611028 C27.9961143,13.6076812 28.0847077,13.8680707 28.284127,14.026056 C28.9039435,14.5148337 29.4894006,15.1006258 29.9785167,15.7214508 C30.1361657,15.9222168 30.4174412,16.0138416 30.6640204,15.942765 L31.8127021,15.6143307 C32.0404174,15.9626395 32.2506161,16.3274543 32.4395928,16.6990061 L31.5816184,17.5286818 C31.394326,17.7099101 31.3340286,17.9925321 31.4307065,18.2340576 C31.7274774,18.9748033 31.9353181,19.7536138 32.0491757,20.5479195 C32.08623,20.8089827 32.2758803,21.0195175 32.5318915,21.0835201 L33.6893315,21.3728791 C33.7004479,21.5827403 33.7065113,21.7939488 33.7065113,22.0001045 C33.7065113,22.2052496 33.7004479,22.4164582 33.6893315,22.626993 C32.3910854,22.9513851 32.5477238,22.9102887 32.4699098,22.9355528 C32.4688993,22.9355528 32.4682256,22.9365634 32.4682256,22.9365634 C32.2610586,23.0116822 32.1077888,23.1841524 32.0586077,23.39974 C32.0586077,23.39974 32.0586077,23.4014243 32.0575971,23.402098 C32.0242483,23.5685047 31.9252124,24.5147324 31.4445176,25.7324658 C31.4418228,25.7375187 31.4401385,25.7418978 31.4384543,25.7469507 C31.3306601,25.9928553 31.3885995,26.2842355 31.5816184,26.4711904 L32.4395928,27.3008661 C32.2509529,27.6727548 32.0404174,28.0372326 31.8127021,28.3858783 L30.6640204,28.0571071 C30.4174412,27.9863675 30.1371763,28.0776553 29.9785167,28.2787582 C29.4836741,28.9073309 28.9133755,29.4772908 28.284127,29.974153 C28.0779706,30.1371912 27.9907246,30.406002 28.0631489,30.6596544 L28.3919211,31.809343 C28.0432743,32.0360468 27.6784583,32.2472554 27.3079158,32.4362314 L26.479248,31.5782599 C26.2970085,31.3909682 26.025502,31.328313 25.7738699,31.4273485 C25.0311006,31.7247922 24.2516139,31.9333059 23.4566318,32.0481736 C23.1952309,32.0852278 22.9850322,32.2748776 22.9210295,32.5312248 L22.6313325,33.6893347 C22.2166618,33.7115672 21.7982856,33.7115672 21.3802463,33.6900084 L21.0902126,32.532909 C21.0265467,32.2765619 20.8160111,32.0869121 20.5549471,32.0498579 C19.7572701,31.9360007 18.9767728,31.727487 18.2343404,31.4307171 C17.9961826,31.3357238 17.7074963,31.3977052 17.5296359,31.5816285 L16.6992838,32.4396 C16.3294151,32.2516345 15.9652728,32.0410997 15.6179735,31.8154063 L15.9464088,30.6667284 C16.0188331,30.413076 15.9319239,30.1439283 15.7240833,29.981227 C15.098877,29.4877334 14.5572113,28.9464062 14.0209352,28.2770739 C13.8595808,28.076308 13.5934639,27.987378 13.3377896,28.059802 L12.1891078,28.3882363 C11.9624031,28.040938 11.7528782,27.6778076 11.5639016,27.3086138 L12.4218759,26.4789381 C12.6118631,26.2953518 12.6704762,26.0184563 12.572114,25.7735622 C12.2746694,25.0294479 12.0648076,24.247269 11.9512869,23.4495947 C11.9132221,23.1881946 11.7235716,22.9779967 11.4682342,22.913994 L10.3101204,22.6242981 C10.2996778,22.4157844 10.2936144,22.2059234 10.2936144,21.9990939 C10.2936144,21.7929382 10.2996778,21.583414 10.3101204,21.375574 L11.4682342,21.0858781 Z" id="Shape"></path>
                <path d="M22.4896216,29 L22.4939047,29 C26.1019591,29 29,26.0805433 29,22.5097194 C29,18.9003472 26.0802139,16 22.5107078,16 C21.2521226,16.0009884 20.0284613,16.360443 18.9731607,17.0391565 C18.6776237,17.2299212 18.5939377,17.6200167 18.7833844,17.9139063 C18.9715132,18.2048305 19.3586435,18.2941176 19.6581341,18.102694 C20.5081734,17.5554401 21.4942848,17.2651747 22.5097194,17.2651747 C25.33297,17.267481 27.7335074,19.5398535 27.7348253,22.5097194 C27.7348253,25.3379121 25.4542159,27.7331778 22.4902805,27.7358136 C19.6617583,27.7335074 17.2664926,25.4558633 17.2651747,22.4912689 C17.2661631,21.499227 17.5478622,20.5309071 18.0809488,19.6917404 C18.2661124,19.3991687 18.1840738,19.0094026 17.885901,18.818638 C17.5857516,18.6305092 17.1986212,18.7204552 17.0131282,19.0136857 C16.3498998,20.0554781 16,21.258053 16,22.4912689 C16,26.103277 18.9220924,29 22.4896216,29 L22.4896216,29 Z" id="Path"></path>
                <path d="M22.5,26 C24.4301471,26 26,24.4301471 26,22.5 C26,20.5701746 24.4301471,19 22.5,19 C20.5701746,19 19,20.5701746 19,22.5 C19,24.4301471 20.5701746,26 22.5,26 L22.5,26 Z M22.5,20.2352941 C23.7488051,20.2352941 24.7647059,21.2515166 24.7647059,22.5 C24.7647059,23.7488051 23.7488051,24.7647059 22.5,24.7647059 C21.2511948,24.7647059 20.2352941,23.7488051 20.2352941,22.5 C20.2352941,21.2515166 21.2511948,20.2352941 22.5,20.2352941 L22.5,20.2352941 Z" id="Shape"></path>
            </g>
        </g>
    </g>
</svg>