<svg xmlns="http://www.w3.org/2000/svg" xmlns:xlink="http://www.w3.org/1999/xlink" viewBox="0 0 1920 1080"><defs><style>.cls-1,.cls-11,.cls-12,.cls-20,.cls-21,.cls-22{fill:none;}.cls-2{clip-path:url(#clip-path);}.cls-3{fill:#fff;}.cls-4{fill:#25235a;}.cls-5{fill:#333275;}.cls-6{fill:#2caada;}.cls-7{fill:#f3f4f4;}.cls-8{font-size:12.26px;fill:#b0b0b0;font-family:MyriadPro-Regular, Myriad Pro;}.cls-9{letter-spacing:0.74em;}.cls-10{fill:#5d58a5;}.cls-11,.cls-21{stroke:#fff;}.cls-11,.cls-12,.cls-20,.cls-21{stroke-miterlimit:10;}.cls-11,.cls-12{stroke-width:3px;}.cls-12{stroke:#333275;}.cls-13{fill:#5c59a7;}.cls-14{fill:#55558e;}.cls-15{fill:#333471;}.cls-16{fill:#3f408e;}.cls-17{fill:#191648;}.cls-18{fill:#2e367f;}.cls-19{fill:#38397a;}.cls-20,.cls-22{stroke:#000;stroke-width:1.48px;}.cls-22{stroke-linecap:round;stroke-linejoin:round;}.cls-23{fill:#2c2d2d;}.cls-24{fill:#40403f;}.cls-25{fill:#d34728;}.cls-26{fill:#050606;}.cls-27{fill:#e2a598;}.cls-28{fill:#f1c8c0;}.cls-29{fill:#eaeaea;}.cls-30{fill:#e05534;}.cls-31{fill:#e26148;}.cls-32{fill:#ea7565;}</style><clipPath id="clip-path"><rect class="cls-1" width="1920" height="1079.28"/></clipPath></defs><title>login_svg</title><g id="BOB_male" data-name="BOB male"><g class="cls-2"><path class="cls-3" d="M1918.72,1079.28,1920,257.41C1210.53,149.23,1244.33,655.94,943.67,803,698.77,922.78,667,954.16,632.17,1079.28Z"/><path class="cls-4" d="M967.77,1097.41A124.05,124.05,0,0,1,910,1041.34c-6.15-12.19-10.14-27.1-3.85-39.22a26.27,26.27,0,0,1,48.11,3.42L943,968.73c-2.35-7.66-4.63-16.26-1-23.41,4.48-8.82,16.53-11.41,25.93-8.33s16.74,10.35,23.71,17.37A187.93,187.93,0,0,1,971,874c-.23-8.34,1-18.25,8.35-22.2,5-2.68,11.38-1.46,16.13,1.63s8.21,7.78,11.46,12.43a430.86,430.86,0,0,1,44.54,80.74c1.26-8.93,2.63-18.21,7.64-25.71s14.78-12.64,23.2-9.41,12.09,12.86,14.82,21.43l14.73,46.35c-2.5-5.74,1.22-12.93,7-15.36s12.69-.74,17.66,3.07,8.23,9.43,10.61,15.22c10.37,25.25,5.09,55.35-10.27,77.91s-39.74,38-65.78,46.14-53.76,9.56-81,8.28c-5.61-.26-11.36-.67-16.49-3s-9.6-6.85-10.24-12.43"/><path class="cls-4" d="M1403.2,1118.62s-20-361.12-238-403.79c0,0,79.33,79.33,76,188.67s69.66,232.66,69.66,232.66Z"/><path class="cls-5" d="M1287.44,1106.94a120.26,120.26,0,0,0,19.51-45.68c1.91-9.72,2.58-19.93-.32-29.39s-9.87-18.08-19.35-20.95-21.15,1.36-25,10.49c3.08-5.6,6.21-11.3,7.48-17.57s.41-13.28-3.76-18.12a15.77,15.77,0,0,0-27.47,7.62c3.29-7.28,6.19-15,6.09-23s-3.79-16.36-10.87-20-17.42-.85-20,6.7a71.06,71.06,0,0,0-119.06-16.51c-11.24,13.32-17.22,30.37-20.32,47.53-5,28-2.37,58.69,14.3,81.72,10.37,14.32,25.51,24.74,41.86,31.48s33.94,10,51.52,11.93a364,364,0,0,0,108.06-4.32"/><path class="cls-4" d="M1252,1124.34l-98-154c-1.72-2.71-6-.2-4.32,2.52l98,154c1.72,2.71,6,.2,4.32-2.53Z"/><path class="cls-4" d="M1230.93,1090.11l-127.38-63.23c-2.87-1.42-5.41,2.89-2.52,4.32l127.38,63.22c2.87,1.43,5.41-2.88,2.52-4.31Z"/><path class="cls-4" d="M1208.88,1055.49l1-50c.07-3.21-4.93-3.21-5,0l-1,50c-.06,3.22,4.94,3.22,5,0Z"/><path class="cls-4" d="M1181.33,1014.82l-88.16-34.59c-3-1.18-4.3,3.66-1.33,4.82l88.16,34.59c3,1.18,4.29-3.65,1.33-4.82Z"/><path class="cls-4" d="M1825.63,1099a129,129,0,0,0,60.06-58.27c6.39-12.67,10.54-28.16,4-40.75a27.3,27.3,0,0,0-50,3.55l11.72-38.25c2.43-8,4.81-16.89,1-24.33-4.65-9.17-17.17-11.85-26.94-8.65s-17.4,10.75-24.63,18a195.43,195.43,0,0,0,21.38-83.51c.24-8.66-1-19-8.68-23.06-5.19-2.78-11.82-1.52-16.76,1.69s-8.53,8.09-11.91,12.92a448.51,448.51,0,0,0-46.29,83.9c-1.3-9.28-2.73-18.92-7.93-26.71s-15.36-13.14-24.12-9.78-12.55,13.35-15.39,22.27l-15.31,48.16c2.6-6-1.26-13.44-7.25-16s-13.19-.76-18.35,3.2-8.56,9.8-11,15.82c-10.77,26.23-5.29,57.51,10.67,80.95s41.3,39.46,68.36,48,55.86,9.94,84.19,8.61c5.83-.27,11.8-.7,17.14-3.07s10-7.12,10.64-12.92"/><path class="cls-5" d="M1659.51,1114.64c3.94-17.18,16.9-30.85,30.85-41.63s29.47-19.64,41.93-32.1,21.77-29.83,19-47.23a39.1,39.1,0,0,0-70.1-17c2.7-13.73,14.85-23.15,25-32.79a156.59,156.59,0,0,0,47.94-103.43c.87-15.25-1.19-32.08-12.22-42.65-11.38-10.91-30-11.82-44.16-4.88s-24.24,20.39-30.55,34.85-9.32,30.08-12.83,45.46-7.7,30.88-16,44.29c4.36-18.47-8.8-38.33-26.74-44.5s-38.6-.19-53,12.15-23.17,30.22-27.93,48.59c-10.65,41.11-2,86.79,22.82,121.22s65.53,56.94,107.91,59.74"/><path class="cls-4" d="M1588.4,1107.88c-4.75-88.21,71.22-151.64,107.28-224.94,9.94-20.2,17.13-41.56,19.66-64,.37-3.19-4.64-3.17-5,0-4.76,42.22-27,79.44-50.49,113.89s-49.06,67.95-64.42,107.09c-8.5,21.65-13.29,44.65-12,68,.17,3.2,5.17,3.22,5,0Z"/><path class="cls-4" d="M1592.9,1058.83l108.63-45.42c2.92-1.23,1.64-6.07-1.33-4.83L1591.57,1054c-2.93,1.22-1.64,6.06,1.33,4.82Z"/><rect class="cls-5" x="862.97" y="501.71" width="157" height="89" rx="3.4" ry="3.4" transform="translate(-146.32 508.4) rotate(-28.13)"/><rect class="cls-6" x="870.72" y="541.73" width="25.33" height="25.33" rx="5.17" ry="5.17" transform="translate(-157.04 481.98) rotate(-28.13)"/><rect class="cls-7" x="889.13" y="581.97" width="67" height="3.31" rx="1.66" ry="1.66" transform="translate(-166.18 503.93) rotate(-28.13)"/><rect class="cls-7" x="892.62" y="588.49" width="67" height="3.31" rx="1.66" ry="1.66" transform="translate(-168.85 506.35) rotate(-28.13)"/><text class="cls-8" transform="matrix(0.88, -0.47, 0.47, 0.88, 887.15, 588.4)">1234<tspan class="cls-9" x="25.16" y="0">	</tspan><tspan x="36.78" y="0">5678</tspan><tspan class="cls-9" x="61.94" y="0">	</tspan><tspan x="73.56" y="0">9101</tspan><tspan class="cls-9" x="98.71" y="0">	</tspan><tspan x="110.34" y="0">1121</tspan></text><rect class="cls-7" x="947.7" y="495.97" width="41.81" height="3.31" rx="1.66" ry="1.66" transform="translate(-120.2 515.45) rotate(-28.13)"/><circle class="cls-7" cx="996.64" cy="549.1" r="8.7"/><circle class="cls-6" cx="1007.01" cy="543.56" r="8.7"/><path class="cls-5" d="M1727.44,296.87a56.83,56.83,0,0,1-30-53.21,1.91,1.91,0,0,0-2.87-1.75,56.83,56.83,0,0,1-61-2.63,1.91,1.91,0,0,0-2.69.51,112.33,112.33,0,0,0-4.47,115.71c.09.15.17.32.26.47l.55,0a112.34,112.34,0,0,0,101.07-56.51A1.91,1.91,0,0,0,1727.44,296.87Z"/><path class="cls-10" d="M1631,348.8a104.81,104.81,0,0,1,3.1-100.55,64,64,0,0,0,56.19,3.81,64,64,0,0,0,28.9,48.35A104.81,104.81,0,0,1,1631,348.8Z"/><path class="cls-3" d="M1658.53,308.7l-4.32-2.65a7,7,0,0,1-2.31-9.64l8.92-14.55a7,7,0,0,1,9.64-2.32l4.32,2.65a7,7,0,0,1,2.31,9.64l-8.92,14.56A7,7,0,0,1,1658.53,308.7ZM1669,281.94a4.2,4.2,0,0,0-5.77,1.39l-8.92,14.55a4.2,4.2,0,0,0,1.38,5.77l4.32,2.65a4.2,4.2,0,0,0,5.77-1.39l8.92-14.55a4.19,4.19,0,0,0-1.39-5.77Z"/><rect class="cls-5" x="1640.9" y="289.98" width="32.4" height="32.4" rx="5.4" ry="5.4" transform="translate(404.25 -820.8) rotate(31.5)"/><circle class="cls-3" cx="1655.09" cy="309.46" r="3.06"/><path class="cls-3" d="M1651,310.27h2.69a0,0,0,0,1,0,0v5.89a1.34,1.34,0,0,1-1.34,1.34h0a1.34,1.34,0,0,1-1.34-1.34v-5.89A0,0,0,0,1,1651,310.27Z" transform="translate(407.57 -817.19) rotate(31.5)"/><path class="cls-5" d="M1010.44,765.25l-8-7.93L996,767.07c-5.38,3.66-11.14,9.86-16,17.69a64.42,64.42,0,0,0-8,18.61l-5.49,8.32,4.72,4.71c.76.76,1.46,1.57,2.17,2.39a6.54,6.54,0,0,0,1.47,1.26c6.67,4.11,19.77-5,29.26-20.39C1013.11,785.22,1015.68,770.41,1010.44,765.25Z"/><ellipse class="cls-10" cx="983.76" cy="783.85" rx="32.72" ry="14.18" transform="translate(-200.07 1208.98) rotate(-58.3)"/><path class="cls-5" d="M850.49,742q-8.9-5.4-17.79,0c-2,1.21-2.16,1-1-1q5.4-8.89,0-17.79c-1.21-2-1-2.16,1-.95q8.89,5.4,17.79,0c2-1.21,2.16-1,1,.95q-5.4,8.9,0,17.79C852.65,743,852.47,743.22,850.49,742Z"/><path class="cls-5" d="M1701.49,475.23q-8.9-5.4-17.79,0c-2,1.21-2.16,1-1-1q5.4-8.89,0-17.8c-1.21-2-1-2.15,1-.94q8.9,5.4,17.79,0c2-1.21,2.16-1,1,.94q-5.4,8.91,0,17.8C1703.65,476.26,1703.47,476.44,1701.49,475.23Z"/><path class="cls-3" d="M1162.54,475.23q-8.89-5.4-17.79,0c-2,1.21-2.16,1-1-1q5.4-8.89,0-17.8c-1.21-2-1-2.15,1-.94q8.89,5.4,17.79,0c2-1.21,2.16-1,1,.94q-5.4,8.91,0,17.8C1164.7,476.26,1164.52,476.44,1162.54,475.23Z"/><line class="cls-11" x1="1014.67" y1="681.74" x2="998.29" y2="665.36"/><line class="cls-12" x1="1283.69" y1="311.81" x2="1267.31" y2="328.19"/><line class="cls-12" x1="1283.69" y1="328.19" x2="1267.31" y2="311.81"/><circle class="cls-5" cx="1106.82" cy="592.09" r="5.09"/><circle class="cls-5" cx="1524.03" cy="294.17" r="5.09"/><circle class="cls-3" cx="1020.46" cy="408.33" r="8.19"/><circle class="cls-3" cx="1577.78" cy="171.95" r="8.19"/><rect class="cls-10" x="1377.17" y="137.55" width="91.09" height="86.09" rx="2.4" ry="2.4" transform="translate(0.63 366.08) rotate(-14.67)"/><path class="cls-3" d="M1409.34,129.1a6.92,6.92,0,0,1-2,3.88,25.41,25.41,0,0,1-3.28,2.84,56.82,56.82,0,0,1-7.36,4.67,36.2,36.2,0,0,1-8,3.07,38.2,38.2,0,0,1-8.46,1.06,39.21,39.21,0,0,1-4.32-.18c-1.45-.15-2.9-.33-4.41-.63a21.54,21.54,0,0,1-8.38-3.73,24.1,24.1,0,0,1-3.31-3,20.05,20.05,0,0,1-2.6-3.64c-.39-.64-.68-1.34-1-2l-.41-1.07-.2-.54-.16-.56a19.61,19.61,0,0,1-.81-4.62v-1.81l.06-.6.14-1.22.26-1.2.13-.61.19-.59c.13-.39.26-.79.4-1.19a18.85,18.85,0,0,1,1.12-2.25,16.51,16.51,0,0,1,3.21-4,19.7,19.7,0,0,1,4.26-2.94l1.2-.53.6-.26.62-.21c.42-.13.84-.28,1.26-.4l1.29-.28a8.29,8.29,0,0,1,1.31-.2c.44,0,.88-.11,1.32-.14a25.23,25.23,0,0,1,2.62,0,35.5,35.5,0,0,1,4.56.7c1.45.3,2.85.67,4.22,1.09a61.24,61.24,0,0,1,8,3.07,41,41,0,0,1,7.36,4.55,60.33,60.33,0,0,1,6.5,5.86,24.93,24.93,0,0,1,2.78,3.36A6.84,6.84,0,0,1,1409.34,129.1Zm-.87-.07a4.62,4.62,0,0,0-1.48-3.32,11.93,11.93,0,0,0-3.19-2.27,19.75,19.75,0,0,0-1.82-.81c-.64-.23-1.26-.45-1.91-.65-1.27-.41-2.59-.72-3.89-1-2.62-.6-5.23-1.16-7.77-1.84s-5.08-1.38-7.61-2l-3.74-.93c-1.22-.29-2.46-.56-3.52-.74-.54-.11-1-.09-1.48-.17-.25,0-.49,0-.73,0a4.42,4.42,0,0,0-.73,0l-.74.07c-.24,0-.48.09-.72.13l-.37.07-.36.1-.72.21a13.85,13.85,0,0,0-8.35,9.19,11.37,11.37,0,0,0,5.26,12.7,11.09,11.09,0,0,0,7.08,1.25c2.48-.35,5.1-1.08,7.67-1.63s5.17-1.06,7.78-1.42,5.26-.59,7.93-.8c1.34-.11,2.69-.21,4-.42a22.45,22.45,0,0,0,3.92-.86,11.75,11.75,0,0,0,1.84-.73,8.92,8.92,0,0,0,1.68-1A4.62,4.62,0,0,0,1408.47,129Z"/><path class="cls-3" d="M1409.89,128.66a4.59,4.59,0,0,0,3.22,1.72,8.47,8.47,0,0,0,2,.07,12,12,0,0,0,2-.27,22.83,22.83,0,0,0,3.83-1.17c1.26-.47,2.49-1,3.7-1.6,2.44-1.12,4.84-2.24,7.3-3.19s5-1.79,7.49-2.57,5.15-1.43,7.48-2.34a11,11,0,0,0,5.56-4.56,11.36,11.36,0,0,0-1.63-13.65A13.85,13.85,0,0,0,1439,97.19l-.73.17-.36.08-.35.12c-.23.09-.47.16-.7.24l-.67.31a4,4,0,0,0-.65.33c-.21.13-.43.24-.63.37-.39.31-.79.51-1.21.87-.83.68-1.79,1.52-2.7,2.38l-2.81,2.64c-1.89,1.79-3.76,3.64-5.64,5.48s-3.89,3.6-5.88,5.41c-1,.91-2,1.83-2.89,2.81-.47.49-.9,1-1.34,1.5s-.83,1-1.19,1.6a11.83,11.83,0,0,0-1.67,3.54A4.62,4.62,0,0,0,1409.89,128.66Zm-.73.49a6.91,6.91,0,0,1-.88-4.31,24.8,24.8,0,0,1,.78-4.28,59.43,59.43,0,0,1,2.8-8.29,40.73,40.73,0,0,1,4.19-7.58,60.71,60.71,0,0,1,5.49-6.61c1-1,2-2,3.14-3a36,36,0,0,1,3.64-2.84,25.79,25.79,0,0,1,2.26-1.32c.4-.19.82-.35,1.22-.53a10.84,10.84,0,0,1,1.24-.46l1.27-.38c.42-.11.86-.19,1.29-.27l.64-.13.66-.07,1.3-.12a20.14,20.14,0,0,1,5.15.47,16.36,16.36,0,0,1,4.73,1.88,18.73,18.73,0,0,1,2.09,1.42c.32.27.62.56.93.84l.45.42.42.46.82.93.71,1,.35.5.3.53.59,1a19.17,19.17,0,0,1,1.56,4.43l.14.56.09.57.16,1.13a21.5,21.5,0,0,1,.11,2.26,20.1,20.1,0,0,1-.49,4.45,24.7,24.7,0,0,1-1.41,4.23,21.72,21.72,0,0,1-5.48,7.35c-1.17,1-2.35,1.87-3.54,2.71a39.18,39.18,0,0,1-3.68,2.27,37.8,37.8,0,0,1-7.89,3.22,36.08,36.08,0,0,1-8.51,1.26,56.25,56.25,0,0,1-8.71-.46,25.63,25.63,0,0,1-4.25-.87A6.94,6.94,0,0,1,1409.16,129.15Z"/><circle class="cls-3" cx="1409.52" cy="128.91" r="6.63"/><rect class="cls-5" x="1357.11" y="130.12" width="110.5" height="21.75" rx="2.24" ry="2.24" transform="matrix(0.97, -0.25, 0.25, 0.97, 10.32, 362.16)"/><rect class="cls-3" x="1411.4" y="135.5" width="22.11" height="88.17" transform="translate(0.88 365.98) rotate(-14.67)"/><rect class="cls-3" x="1405.38" y="149.84" width="22.07" height="13.28" transform="matrix(0.97, -0.25, 0.25, 0.97, 6.53, 363.69)"/><rect class="cls-3" x="1396.74" y="130.12" width="31.25" height="21.75" transform="matrix(0.97, -0.25, 0.25, 0.97, 10.32, 362.16)"/><path class="cls-13" d="M1255.44,896a24.57,24.57,0,0,0,11.19-14.55c.95-3.48,1.11-7.11,1.78-10.65s1.92-7.14,4.58-9.57,7-3.29,9.9-1.16a8,8,0,0,1,3,6.32,17.11,17.11,0,0,1-1.66,7,40.49,40.49,0,0,1-27,23Z"/><path class="cls-13" d="M1256.7,898.17a27.78,27.78,0,0,0,11.4-13.31c2.39-6,1.1-22.74,10.09-23.35,12.88-.87-1.16,19.48-4.46,22.72-3.62,3.55-12.13,10.43-17.62,9.37-3.15-.61-4.49,4.21-1.33,4.82,7.78,1.5,17.22-5.49,22.49-10.66,5.94-5.82,13.81-16.73,10.24-25.48-3.48-8.55-14.32-6.78-18.63,0-3.2,5.07-3,11.06-4.25,16.72a22.71,22.71,0,0,1-10.45,14.81C1251.46,895.55,1254,899.88,1256.7,898.17Z"/><path class="cls-13" d="M1266.3,936.52c5-1.07,8.75-5.41,10.82-10.09s2.84-9.83,4.25-14.75,3.68-9.89,7.85-12.87,10.63-3.2,14,.67c3.18,3.66,2.5,9.28.76,13.8a38.7,38.7,0,0,1-35.25,24.15Z"/><path class="cls-13" d="M1267,938.94c8.23-2.29,12.34-9.73,14.5-17.48,1.39-5,2.14-10.33,4.59-15s8.43-9.85,14-6.42c5.35,3.3,2.26,11.6,0,15.84a36,36,0,0,1-8.45,10.43c-5.93,5.06-16.76,10.76-24.61,7.8-3-1.13-4.32,3.7-1.33,4.83,9,3.4,21.06-2.4,28.13-8,7.72-6.12,16.44-17.84,13.74-28.39s-15.91-10.3-22.34-3.5c-9,9.46-5.22,31.08-19.53,35.06C1262.54,935,1263.86,939.8,1267,938.94Z"/><path class="cls-13" d="M1317.37,1056.83c7.08-1.51,12.37-7.65,15.3-14.28s4-13.9,6-20.86,5.2-14,11.09-18.22,15-4.52,19.79.95c4.49,5.18,3.54,13.13,1.07,19.53-7.71,20-28.45,34.2-49.87,34.16Z"/><path class="cls-13" d="M1318,1059.24c13.73-3.58,18.28-17.56,21.27-29.86,1.79-7.35,3.59-15.29,8.82-21.07,5-5.52,15.87-8.65,20.53-.86,4,6.63.12,15.8-3.28,21.82a52,52,0,0,1-12.78,14.89c-8.56,6.85-23.55,14.4-34.56,10.26-3-1.13-4.32,3.7-1.33,4.82,9.39,3.54,21.27-.67,29.79-5.16a57,57,0,0,0,24.87-25.52c4.43-9.36,7-24.12-4.79-29.35-10.92-4.85-21.81,2.92-26.69,12.45-6.92,13.54-5.14,38.05-23.18,42.76C1313.59,1055.23,1314.91,1060.06,1318,1059.24Z"/><path class="cls-13" d="M1265.75,933.37c-6.45.57-12.14-4.11-16.42-9S1241,913.93,1235,911.58c-4.18-1.63-9.92-.88-11.78,3.21-1.38,3.05,0,6.79,2.46,9.06s5.73,3.39,8.94,4.34c11.26,3.34,20.57,5.38,32.3,6.06Z"/><path class="cls-13" d="M1265.75,930.87c-11.29.31-16.58-12.48-24.43-18.47-5.51-4.2-15.69-6.8-20,.61-5,8.61,4.86,15.16,11.79,17.35a142.9,142.9,0,0,0,33.77,6.39c2.76.18,3-3.31,1.26-4.66l-1.14-.88c-2.55-2-5,2.38-2.53,4.32l1.15.88,1.26-4.66a130.3,130.3,0,0,1-24.74-4c-4.13-1.08-8.81-2-12.54-4.1-2.75-1.58-6.56-5.74-3.29-9,1.51-1.48,4-1.52,5.9-1.2,7.45,1.25,12,9.39,16.88,14.37,4.52,4.66,10,8.23,16.64,8C1269,935.78,1269,930.78,1265.75,930.87Z"/><path class="cls-13" d="M1283.05,977.62a45.7,45.7,0,0,0,28.85-11.8c3.23-3,6.1-6.5,7.26-10.72s.31-9.18-3-12.1c-3.61-3.24-9.37-3.19-13.63-.86s-7.2,6.51-9.29,10.89-3.43,9.08-5.41,13.51-4.72,8.72-8.8,11.34Z"/><path class="cls-13" d="M1283.05,980.12a49.28,49.28,0,0,0,29.43-11.49c7.16-6.09,13.83-17.36,6.69-26.1-6.27-7.67-17.61-4.62-23.34,2-8,9.17-7.7,24-18,31.22-1.85,1.3-1.42,4.83,1.27,4.66l4-.26c3.2-.2,3.22-5.2,0-5l-4,.26,1.26,4.65c5.73-4,8.82-9.79,11.34-16.19,3.07-7.84,6.66-20.74,17.23-20.85,6.31-.06,9.33,5.81,7.84,11.45-1.25,4.75-5.07,8.49-8.81,11.45a43.84,43.84,0,0,1-24.89,9.23C1279.85,975.3,1279.83,980.3,1283.05,980.12Z"/><path class="cls-13" d="M1305,1016.77a45.79,45.79,0,0,0,28.85-11.81c3.23-3,6.1-6.5,7.26-10.71s.3-9.18-2.95-12.1c-3.62-3.24-9.37-3.2-13.63-.87s-7.21,6.51-9.29,10.9-3.44,9.07-5.42,13.5-4.71,8.72-8.8,11.34Z"/><path class="cls-13" d="M1305,1019.27a49.23,49.23,0,0,0,29.42-11.49c7.16-6.1,13.83-17.37,6.7-26.1-6.27-7.68-17.61-4.63-23.34,2-8,9.18-7.71,24-18,31.22-1.85,1.31-1.42,4.83,1.26,4.66l4-.25c3.19-.21,3.22-5.21,0-5l-4,.25,1.26,4.66c5.74-4,8.83-9.79,11.34-16.19,3.08-7.84,6.67-20.75,17.24-20.85,6.3-.07,9.32,5.81,7.84,11.44-1.26,4.76-5.07,8.5-8.81,11.45a43.81,43.81,0,0,1-24.89,9.24C1301.77,1014.44,1301.75,1019.45,1305,1019.27Z"/><path class="cls-13" d="M1280.27,976.73A53.76,53.76,0,0,0,1249,962a20.91,20.91,0,0,0-9.15.59,8.68,8.68,0,0,0-4,14.7,20.1,20.1,0,0,0,7.62,5,47.18,47.18,0,0,0,38.21-1.6Z"/><path class="cls-13" d="M1282,975A57.13,57.13,0,0,0,1252.87,960c-8.06-1.42-21.16-.94-22,9.93-.82,10.49,11.56,15.36,19.87,17.07a51.37,51.37,0,0,0,32.3-4.23,2.51,2.51,0,0,0,1.15-2.82l-1.49-3.91c-1.14-3-6-1.69-4.83,1.33l1.5,3.91,1.14-2.83a46.45,46.45,0,0,1-22.61,4.48c-6.68-.4-21.79-3.05-21.86-11.92-.08-10.39,16.63-6.34,22.49-4.47a52.36,52.36,0,0,1,20,11.93C1280.85,980.7,1284.39,977.17,1282,975Z"/><path class="cls-13" d="M1316.65,1055.33q-24.39,1.85-48.78,3.81a22.93,22.93,0,0,0-8,1.61c-2.48,1.15-4.61,3.43-4.8,6.16a7.65,7.65,0,0,0,3.18,6.26,19,19,0,0,0,6.63,3c10.57,3,22,3.8,32.47.31s19.58-11.71,22.46-22.32"/><path class="cls-13" d="M1316.65,1052.83c-16.79,1.27-33.67,2.19-50.42,4-5.21.54-11,2.12-13,7.54-1.9,5,1.33,9.79,5.67,12.17,11.16,6.12,28.1,6.33,39.86,2.13,11.07-4,20.12-12.45,23.53-23.82.93-3.09-3.89-4.41-4.82-1.33-6.52,21.7-31.91,25.73-51,20.49-2.27-.62-4.75-1.25-6.56-2.84-4.95-4.36-.27-8,3.81-9,5.64-1.36,12.1-1.16,17.88-1.61q17.55-1.4,35.12-2.72c3.19-.24,3.21-5.24,0-5Z"/><path class="cls-13" d="M1256.81,895.62c-7.52-.83-13.2-7-18-12.87s-10-12.26-17.39-13.87a11.64,11.64,0,0,0-7.31.56,7.48,7.48,0,0,0-4.37,5.66c-.48,4.28,3.4,7.7,7.07,9.95a76.85,76.85,0,0,0,40,11.29Z"/><path class="cls-13" d="M1257.47,893.21c-12.26-2-17.37-15.16-26.31-22.21-6.11-4.82-17.34-8.08-22.45,0-5.84,9.23,6.25,16.27,13,19.61a81.12,81.12,0,0,0,35.15,8.24,2.51,2.51,0,0,0,2.5-2.5l-.06-.72c-.27-3.18-5.27-3.21-5,0l.06.72,2.5-2.5a76.66,76.66,0,0,1-26.79-5,60.38,60.38,0,0,1-13.2-6.73c-2.49-1.77-5.76-4.55-4.19-8.07,1.17-2.64,4.46-3.09,6.94-2.86,8.45.75,13.91,9.22,18.9,15.11,4.71,5.55,10.2,10.57,17.61,11.75C1259.29,898.54,1260.65,893.72,1257.47,893.21Z"/><path class="cls-13" d="M1246.43,866.78a70.42,70.42,0,0,0-6.16-29.2c-2.68-6-6.48-11.84-12.3-14.84s-14-2.13-17.64,3.32c-2.79,4.19-2.21,10,.4,14.3s6.9,7.33,11.38,9.64,9.23,4,13.62,6.49,8.51,5.79,10.68,10.34"/><path class="cls-13" d="M1248.93,866.78c-.08-12.93-3-27-10.58-37.77-5.62-8-16-13.78-25.54-8.5-9.69,5.38-7.78,18.21-1.09,25.16,9.32,9.67,25.88,9.94,32.53,22.42,1.52,2.84,5.84.32,4.32-2.52-4.22-7.93-12-11.68-19.89-15.22-4.32-2-8.8-4-12.34-7.17-4.08-3.72-7.55-10.63-3.85-15.86,7.11-10,19.56.34,23.58,7.43,5.47,9.65,7.79,21,7.86,32,0,3.21,5,3.22,5,0Z"/><path class="cls-13" d="M1335.23,1081.93c-13.91-26-26.57-52.61-38.46-79.54-12.34-27.94-24.22-56.39-32.84-85.73-5.68-19.32-9.41-39.11-17.52-57.65-1.28-2.94-5.59-.4-4.31,2.52,7.6,17.4,11.17,36,16.35,54.19,3.82,13.38,8.49,26.51,13.44,39.5,11.31,29.69,24.21,58.8,37.94,87.44,6.74,14.07,13.71,28,21.08,41.79,1.52,2.84,5.84.32,4.32-2.52Z"/><path class="cls-13" d="M1298.16,1014.37l3.17,1.5a56.64,56.64,0,0,1-36.88,8.39c-4-.49-8.16-1.48-11.48-3.85s-5.72-6.36-5.26-10.42c.54-4.8,5-8.51,9.74-9.41s9.66.53,14,2.64,8.35,4.89,12.7,7a45.7,45.7,0,0,0,14,4.16"/><path class="cls-13" d="M1296.9,1016.53l3.17,1.5v-4.32a55.33,55.33,0,0,1-25.57,8.34c-7.54.47-22.43.19-24.22-9.72-.88-4.91,3.48-8.49,7.83-9.34,5.34-1,10.78,1.58,15.3,4.07,7.88,4.34,15,8.36,24.09,9.72,3.14.47,4.5-4.34,1.33-4.82-7.6-1.14-13.95-4-20.54-7.86-4.89-2.83-10-5.59-15.73-6.15-8.4-.83-18.26,4.68-17.3,14.22,1.1,11,13.3,14.36,22.53,14.89a60,60,0,0,0,34.81-9c1.48-.92,1.77-3.49,0-4.32l-3.18-1.5c-2.89-1.36-5.43,2.95-2.52,4.32Z"/><polygon class="cls-14" points="1168.31 375.84 1178.65 381.28 1155.79 388.9 1168.31 375.84"/><path class="cls-15" d="M1168.41,376.45l9,4.73-19.87,6.62,10.88-11.35m-.2-1.22L1154.05,390l25.86-8.62-11.7-6.16Z"/><polygon class="cls-16" points="1154.66 252.09 1162.19 248.36 1209.43 360.98 1198.18 374.25 1154.66 252.09"/><path class="cls-17" d="M1161.93,249l46.93,111.85-10.5,12.39-43.08-120.94,6.65-3.3m.51-1.35-8.39,4.15,44,123.39,12-14.16-47.57-113.38Z"/><polygon class="cls-16" points="1210.36 360.63 1163.07 247.9 1167.98 245.15 1221.16 362.92 1210.36 360.63"/><path class="cls-17" d="M1167.75,245.84l52.56,116.39-9.59-2-47-112.08,4.06-2.28m.46-1.39-5.77,3.24L1210,361.07l12,2.54-53.81-119.16Z"/><polygon class="cls-16" points="1210.19 361.61 1220.5 363.79 1199.89 373.76 1210.19 361.61"/><path class="cls-17" d="M1210.38,362.16,1219,364l-17.2,8.33,8.6-10.14m-.37-1.09-12,14.16,24-11.62-12-2.54Z"/><polygon class="cls-18" points="1154.05 251.84 1132.88 261.08 1176.53 377.23 1198 375.23 1154.05 251.84"/><polygon class="cls-14" points="1127.53 259.81 1136.47 257.12 1167.66 375.09 1154.34 388.99 1127.53 259.81"/><path class="cls-15" d="M1136.13,257.74l31,117.2-12.47,13-26.53-127.81,8-2.41m.69-1.24-9.86,3L1154.05,390l14.16-14.78L1136.82,256.5Z"/><polygon class="cls-14" points="1168.63 374.89 1137.42 256.84 1145.08 254.54 1179.14 380.42 1168.63 374.89"/><path class="cls-15" d="M1144.74,255.16l33.62,124.29-9.3-4.9-31-117.37,6.72-2m.69-1.24-8.61,2.58,31.39,118.73,11.7,6.16-34.48-127.47Z"/><polygon class="cls-19" points="1126.95 259.46 1085.59 273.35 1097.19 370.71 1154.05 390.01 1126.95 259.46"/><path class="cls-20" d="M1136.82,256.5s4.17-67.64-8.48-68c0,0,16.75-9.06,30,61.16"/><circle class="cls-21" cx="1100.5" cy="276.43" r="2.25"/><circle class="cls-21" cx="1114.5" cy="273.01" r="2.25"/><path class="cls-22" d="M1100.5,276.43s-9.21-66.63,27.84-87.89c0,0-27.42,31.89-13.92,84.16"/><polygon class="cls-23" points="1384.56 881.89 1376.66 1088.55 1492.7 1092.26 1489.03 834.05 1384.56 881.89"/><path class="cls-24" d="M1439,893.15s6,64.19,14.92,122.26l5.9,65.22h116.85s0-49.34,8.44-100.48c11.34-69-7.18-118.41-7.18-118.41Z"/><path class="cls-25" d="M1376.8,572s-25.09,23.08-17.08,146.29l73.43-85.44Z"/><path class="cls-26" d="M1408.12,448.14s-15-34.17,0-57.06S1417.87,440,1408.12,448.14Z"/><path class="cls-27" d="M1193.75,614.54s16.75-4.45,25-36.4c1.71-10.25,12.47-9.84,10.42-18.25s-24.6,7.31-25.46,25.09A56.83,56.83,0,0,1,1193.75,614.54Z"/><path class="cls-27" d="M1185,607.36s-21-57.07,6.32-77.24c0,0-7.9,52.8,10.42,53.66C1221.59,584.7,1197.3,614,1185,607.36Z"/><rect class="cls-10" x="1188.61" y="511.56" width="9.4" height="91.81" rx="2.63" ry="2.63" transform="translate(2498.46 734.45) rotate(162.68)"/><path class="cls-28" d="M1369.07,714.5s-72.79,1-168.65-105.09c0,0,.79-10.43-3.25-15.55,0,0,11.91,6.51,20,4.87a.86.86,0,0,0,.35-1.54c-4-2.87-15.51-10.94-23.53-12.9a1,1,0,0,1-.4-1.75c2.07-1.65,7.34-3.61,20,.59a.85.85,0,0,0,1.06-1.14c-1.52-3.56-6.65-11.41-22-10.51a.91.91,0,0,1-.65-1.6c2-1.61,6.74-3.34,17.85-.42a.85.85,0,0,0,.77-1.48c-5.15-4.38-16.87-12.39-27-5.22-4.58,3.26-7,8.59-7.55,14.19-4.86,55.2,53.32,136.54,176.61,173.1Z"/><polygon class="cls-29" points="1213.75 622.07 1206.57 615.75 1191.36 637.1 1205.89 665.64 1213.75 622.07"/><path class="cls-30" d="M1211.57,620s111.88,77.91,171.86,81l8.71,63.27s-17.43,14.65-42,3.37c-23.07-10.57-137.32-88.4-151.51-106.28a4.89,4.89,0,0,1-.7-4.74Z"/><path class="cls-31" d="M1590.51,928.43c-35.36,11.91-135.56,39.88-207.66,3a13.58,13.58,0,0,1-7.31-13c2-31.24,8.36-138.82,5.59-175-2.61-34.24-19.89-106.78-13.83-148.77a49.84,49.84,0,0,1,18.83-32.22c17.07-13.26,53.52-37.11,93.38-35.86,55,1.73,92.93,22.46,112.13,46.14,51.94,64.06-44.11,179,7.5,338.36A13.73,13.73,0,0,1,1590.51,928.43Z"/><path class="cls-27" d="M1507,526.6s-6.27-25.72-6-41-53.32,19.05-53.32,19.05-4.49,35.32,0,52.52,20,31.93,20,31.93l23.15-35.37Z"/><path class="cls-28" d="M1406.41,405.8s-8.08,94.93,37.39,111.19,64.83-51.3,64.83-51.3l-4.25-80.1Z"/><path class="cls-28" d="M1309,659.57s-18.83-9.48-29.79-14.75c-24.15-11.63-24.38-28.24-25.74-39.07-1.94-15.42-24.94-25-26.41-26.57-1.15-1.28-4.59-10.63,10.89-4.82s58.21,32.14,75.33,57.3S1309,659.57,1309,659.57Z"/><polygon class="cls-29" points="1325.59 636.5 1304.75 620.99 1298.14 656.81 1319.33 671.48 1325.59 636.5"/><path class="cls-32" d="M1317.45,630.49s107.62,66.91,139,68,64-143.9,120.76-115.41c56.59,28.38-29.14,127-74.23,174.05s-191-72.28-191-72.28Z"/><path class="cls-29" d="M1507.81,529.35s-6,37.18-40.14,62.81c0,0-34-26.75-23.24-62.59,0,0,4.46,20.41,13.06,22.2,3.2.67,7.79,22.28,10.18,23.82,0,0-1.89-15.48,0-20.84S1501.61,535.62,1507.81,529.35Z"/><path class="cls-3" d="M1445.85,526.6s-22.71,10.1-6.65,46c0,0,7.19-19.5,19.28-20C1458.48,552.56,1445.66,538.11,1445.85,526.6Z"/><path class="cls-26" d="M1497.71,456c1.33-20.58-18-23.1-18.27,2.65a.71.71,0,0,1-.7.7l-6,0a.71.71,0,0,1-.7-.7V439.2a6.08,6.08,0,0,0-5.81-6.08c-16.13-.74-60.6-5.74-65.19-38.12-4.55-32.11,55.45-51.51,91-29.62,22.75,14,31,30.14,26.54,56.49-5,30.05-15.2,59.19-17.63,65.71C1501,487.58,1496.14,480.41,1497.71,456Z"/><path class="cls-3" d="M1467.67,555.15c-1.72-1.66,34.58-27.78,36.65-40.91,0,0,10.73,12.11,9.73,18.88s-19.83,41.52-19.83,41.52S1476,558,1467.67,555.15Z"/></g></g></svg>