<?xml version="1.0" encoding="UTF-8"?>
<svg width="38px" height="39px" viewBox="0 0 38 39" version="1.1" xmlns="http://www.w3.org/2000/svg" xmlns:xlink="http://www.w3.org/1999/xlink">
    <!-- Generator: Sketch 54 (76480) - https://sketchapp.com -->
    <title>Group 700</title>
    <desc>Created with Sketch.</desc>
    <g id="Payments" stroke="none" stroke-width="1" fill="none" fill-rule="evenodd" stroke-linejoin="round">
        <g id="BOB---Web-UI---Payments---Insta-Payment-Step-2" transform="translate(-325.000000, -628.000000)" stroke-width="1.5">
            <g id="Group-700" transform="translate(325.000000, 628.000000)">
                <path d="M3.95833333,31.2 L3.95833333,18.4" id="Stroke-832" stroke="#DF5435"></path>
                <path d="M2.375,31.2 L10.2916667,31.2" id="Stroke-833" stroke="#DF5435" stroke-linecap="round"></path>
                <path d="M0.791666667,37.6 L37.2083333,37.6" id="Stroke-834" stroke="#3E5996" stroke-linecap="round"></path>
                <path d="M0.791666667,34.4 L37.2083333,34.4" id="Stroke-835" stroke="#3E5996" stroke-linecap="round"></path>
                <path d="M2.375,18.4 L10.2916667,18.4" id="Stroke-836" stroke="#DF5435" stroke-linecap="round"></path>
                <path d="M15.0416667,31.2 L22.9583333,31.2" id="Stroke-837" stroke="#DF5435" stroke-linecap="round"></path>
                <path d="M15.0416667,18.4 L22.9583333,18.4" id="Stroke-838" stroke="#DF5435" stroke-linecap="round"></path>
                <path d="M8.70833333,31.2 L8.70833333,18.4" id="Stroke-839" stroke="#DF5435"></path>
                <path d="M16.625,31.2 L16.625,18.4" id="Stroke-840" stroke="#DF5435"></path>
                <path d="M21.375,31.2 L21.375,18.4" id="Stroke-841" stroke="#DF5435"></path>
                <path d="M27.7083333,31.2 L35.625,31.2" id="Stroke-842" stroke="#DF5435" stroke-linecap="round"></path>
                <path d="M27.7083333,18.4 L35.625,18.4" id="Stroke-843" stroke="#DF5435" stroke-linecap="round"></path>
                <path d="M29.2916667,31.2 L29.2916667,18.4" id="Stroke-844" stroke="#DF5435"></path>
                <path d="M34.0416667,31.2 L34.0416667,18.4" id="Stroke-845" stroke="#DF5435"></path>
                <polygon id="Stroke-846" stroke="#3E5996" points="0.791666667 15.2 37.2083333 15.2 19.0490833 0.8"></polygon>
            </g>
        </g>
    </g>
</svg>