<?xml version="1.0" encoding="UTF-8"?>
<svg width="51px" height="45px" viewBox="0 0 51 45" version="1.1" xmlns="http://www.w3.org/2000/svg" xmlns:xlink="http://www.w3.org/1999/xlink">
    <!-- Generator: Sketch 55.2 (78181) - https://sketchapp.com -->
    <title>payment-failure</title>
    <desc>Created with Sketch.</desc>
    <defs>
        <linearGradient x1="100%" y1="50%" x2="0%" y2="50%" id="linearGradient-1">
            <stop stop-color="#173F85" offset="0%"></stop>
            <stop stop-color="#3BBAE6" offset="100%"></stop>
        </linearGradient>
        <linearGradient x1="100%" y1="50%" x2="0%" y2="50%" id="linearGradient-2">
            <stop stop-color="#173F85" offset="0%"></stop>
            <stop stop-color="#3BBAE6" offset="100%"></stop>
        </linearGradient>
        <linearGradient x1="100%" y1="50%" x2="0%" y2="50%" id="linearGradient-3">
            <stop stop-color="#173F85" offset="0%"></stop>
            <stop stop-color="#3BBAE6" offset="100%"></stop>
        </linearGradient>
        <linearGradient x1="100%" y1="50%" x2="0%" y2="50%" id="linearGradient-4">
            <stop stop-color="#173F85" offset="0%"></stop>
            <stop stop-color="#3BBAE6" offset="100%"></stop>
        </linearGradient>
        <linearGradient x1="100%" y1="50%" x2="0%" y2="50%" id="linearGradient-5">
            <stop stop-color="#173F85" offset="0%"></stop>
            <stop stop-color="#3BBAE6" offset="100%"></stop>
        </linearGradient>
        <linearGradient x1="100%" y1="50%" x2="0%" y2="50%" id="linearGradient-6">
            <stop stop-color="#173F85" offset="0%"></stop>
            <stop stop-color="#3BBAE6" offset="100%"></stop>
        </linearGradient>
        <linearGradient x1="100%" y1="50%" x2="0%" y2="50%" id="linearGradient-7">
            <stop stop-color="#173F85" offset="0%"></stop>
            <stop stop-color="#3BBAE6" offset="100%"></stop>
        </linearGradient>
    </defs>
    <g id="Page-1" stroke="none" stroke-width="1" fill="none" fill-rule="evenodd">
        <g id="Pixel-3" transform="translate(-405.000000, -158.000000)" fill-rule="nonzero">
            <g id="payment-failure" transform="translate(405.000000, 158.000000)">
                <path d="M47.0577299,0 L3.94227006,0 C1.76853229,0 0,1.74555224 0,3.89104478 L0,29.1089552 C0,31.2544478 1.76853229,33 3.94227006,33 L19.9109589,33 C20.3243483,33 20.6594912,32.6692119 20.6594912,32.261194 C20.6594912,31.8531761 20.3243483,31.5223881 19.9109589,31.5223881 L3.94227006,31.5223881 C2.5940137,31.5223881 1.49706458,30.4396925 1.49706458,29.1089552 L1.49706458,3.89104478 C1.49706458,2.56030746 2.5940137,1.47761194 3.94227006,1.47761194 L47.0577299,1.47761194 C48.4059863,1.47761194 49.5029354,2.56030746 49.5029354,3.89104478 L49.5029354,29.1089552 C49.5029354,29.5169731 49.8380783,29.8477612 50.2514677,29.8477612 C50.6648571,29.8477612 51,29.5169731 51,29.1089552 L51,3.89104478 C51,1.74555224 49.2314677,0 47.0577299,0 Z" id="Path" fill="url(#linearGradient-1)"></path>
                <path d="M20.245283,26 L5.75471698,26 C5.33791195,26 5,26.4477333 5,27 C5,27.5522667 5.33791195,28 5.75471698,28 L20.245283,28 C20.6620881,28 21,27.5522667 21,27 C21,26.4477333 20.6620881,26 20.245283,26 Z" id="Path" fill="url(#linearGradient-2)"></path>
                <path d="M15,12.9177215 L15,10.0822785 C15,8.93410127 14.0012842,8 12.7736842,8 L8.22631579,8 C6.99871579,8 6,8.93410127 6,10.0822785 L6,12.9177215 C6,14.0658987 6.99871579,15 8.22631579,15 L12.7736842,15 C14.0012842,15 15,14.0658987 15,12.9177215 Z M7.42105263,12.9177215 L7.42105263,12.164557 L8.22631579,12.164557 C8.61871579,12.164557 8.93684211,11.8670127 8.93684211,11.5 C8.93684211,11.1329873 8.61871579,10.835443 8.22631579,10.835443 L7.42105263,10.835443 L7.42105263,10.0822785 C7.42105263,9.66697468 7.78228421,9.32911392 8.22631579,9.32911392 L9.78947368,9.32911392 L9.78947368,13.6708861 L8.22631579,13.6708861 C7.78228421,13.6708861 7.42105263,13.3330253 7.42105263,12.9177215 Z M12.7736842,13.6708861 L11.2105263,13.6708861 L11.2105263,9.32911392 L12.7736842,9.32911392 C13.2177158,9.32911392 13.5789474,9.66697468 13.5789474,10.0822785 L13.5789474,10.835443 L12.7736842,10.835443 C12.3812842,10.835443 12.0631579,11.1329873 12.0631579,11.5 C12.0631579,11.8670127 12.3812842,12.164557 12.7736842,12.164557 L13.5789474,12.164557 L13.5789474,12.9177215 C13.5789474,13.3330253 13.2177158,13.6708861 12.7736842,13.6708861 Z" id="Shape" fill="url(#linearGradient-3)"></path>
                <path d="M5,21.2741935 C5,21.6750323 5.44773333,22 6,22 C6.55226667,22 7,21.6750323 7,21.2741935 L7,19.7258065 C7,19.3249677 6.55226667,19 6,19 C5.44773333,19 5,19.3249677 5,19.7258065 L5,21.2741935 Z" id="Path" fill="url(#linearGradient-4)"></path>
                <path d="M7,19.7258065 L7,21.2741935 C7,21.6750323 7.44773333,22 8,22 C8.55226667,22 9,21.6750323 9,21.2741935 L9,19.7258065 C9,19.3249677 8.55226667,19 8,19 C7.44773333,19 7,19.3249677 7,19.7258065 Z" id="Path" fill="url(#linearGradient-4)"></path>
                <path d="M10,19.7258065 L10,21.2741935 C10,21.6750323 10.4477333,22 11,22 C11.5522667,22 12,21.6750323 12,21.2741935 L12,19.7258065 C12,19.3249677 11.5522667,19 11,19 C10.4477333,19 10,19.3249677 10,19.7258065 Z" id="Path" fill="url(#linearGradient-4)"></path>
                <path d="M13,19.7258065 L13,21.2741935 C13,21.6750323 13.4477333,22 14,22 C14.5522667,22 15,21.6750323 15,21.2741935 L15,19.7258065 C15,19.3249677 14.5522667,19 14,19 C13.4477333,19 13,19.3249677 13,19.7258065 Z" id="Path" fill="url(#linearGradient-4)"></path>
                <path d="M18,21.2741935 L18,19.7258065 C18,19.3249677 17.5522667,19 17,19 C16.4477333,19 16,19.3249677 16,19.7258065 L16,21.2741935 C16,21.6750323 16.4477333,22 17,22 C17.5522667,22 18,21.6750323 18,21.2741935 Z" id="Path" fill="url(#linearGradient-4)"></path>
                <path d="M20,21.2741935 L20,19.7258065 C20,19.3249677 19.5522667,19 19,19 C18.4477333,19 18,19.3249677 18,19.7258065 L18,21.2741935 C18,21.6750323 18.4477333,22 19,22 C19.5522667,22 20,21.6750323 20,21.2741935 Z" id="Path" fill="url(#linearGradient-4)"></path>
                <path d="M21,19 C20.4477333,19 20,19.3249677 20,19.7258065 L20,21.2741935 C20,21.6750323 20.4477333,22 21,22 C21.5522667,22 22,21.6750323 22,21.2741935 L22,19.7258065 C22,19.3249677 21.5522667,19 21,19 Z" id="Path" fill="url(#linearGradient-4)"></path>
                <path d="M24,21.2741935 L24,19.7258065 C24,19.3249677 23.5522667,19 23,19 C22.4477333,19 22,19.3249677 22,19.7258065 L22,21.2741935 C22,21.6750323 22.4477333,22 23,22 C23.5522667,22 24,21.6750323 24,21.2741935 Z" id="Path" fill="url(#linearGradient-4)"></path>
                <path d="M40.9566929,15 C43.1861417,15 45,13.4298734 45,11.5 C45,9.57012658 43.1861417,8 40.9566929,8 L36.0433071,8 C33.8138583,8 32,9.57012658 32,11.5 C32,13.4298734 33.8138583,15 36.0433071,15 L40.9566929,15 Z M33.5354331,11.5 C33.5354331,10.303 34.6604961,9.32911392 36.0433071,9.32911392 L40.9566929,9.32911392 C42.3395039,9.32911392 43.4645669,10.303 43.4645669,11.5 C43.4645669,12.697 42.3395039,13.6708861 40.9566929,13.6708861 L36.0433071,13.6708861 C34.6604961,13.6708861 33.5354331,12.697 33.5354331,11.5 Z" id="Shape" fill="url(#linearGradient-5)"></path>
                <path d="M35.5,19 C28.607451,19 23,24.831749 23,32 C23,39.168251 28.607451,45 35.5,45 C42.392549,45 48,39.168251 48,32 C48,24.831749 42.392549,19 35.5,19 Z M35.5,43.4705882 C29.4183333,43.4705882 24.4705882,38.3249333 24.4705882,32 C24.4705882,25.6750667 29.4183333,20.5294118 35.5,20.5294118 C41.5816667,20.5294118 46.5294118,25.6750667 46.5294118,32 C46.5294118,38.3249333 41.5816667,43.4705882 35.5,43.4705882 Z" id="Shape" fill="url(#linearGradient-6)"></path>
                <path d="M41.7751349,27.2248646 C41.4753149,26.9250451 40.9891948,26.9250451 40.6894771,27.2248646 L35.5,32.4143315 L30.3105229,27.2248646 C30.0107028,26.9250451 29.5245828,26.9250451 29.2248651,27.2248646 C28.925045,27.5246841 28.925045,28.0108032 29.2248651,28.3105203 L34.4143422,33.4999872 L29.2248651,38.6894541 C28.925045,38.9892736 28.925045,39.4753927 29.2248651,39.7751098 C29.3747239,39.9249684 29.5712601,40 29.767694,40 C29.9641278,40 30.160664,39.9250707 30.3105229,39.7751098 L35.5,34.5856429 L40.6894771,39.7751098 C40.839336,39.9249684 41.0358722,40 41.232306,40 C41.4287399,40 41.6252761,39.9250707 41.7751349,39.7751098 C42.074955,39.4752903 42.074955,38.9891712 41.7751349,38.6894541 L36.5856578,33.4999872 L41.7751349,28.3105203 C42.074955,28.0108032 42.074955,27.5245817 41.7751349,27.2248646 Z" id="Path" fill="url(#linearGradient-7)"></path>
            </g>
        </g>
    </g>
</svg>