<?xml version="1.0" encoding="UTF-8"?>
<svg width="22px" height="22px" viewBox="0 0 22 22" version="1.1" xmlns="http://www.w3.org/2000/svg" xmlns:xlink="http://www.w3.org/1999/xlink">
    <!-- Generator: Sketch 55.2 (78181) - https://sketchapp.com -->
    <title>Slice 1</title>
    <desc>Created with Sketch.</desc>
    <g id="Page-1" stroke="none" stroke-width="1" fill="none" fill-rule="evenodd">
        <g id="clock" fill="#666666" fill-rule="nonzero">
            <path d="M21.1218693,6.71559222 C19.9619804,4.0099401 17.9909673,2.04219637 15.2642255,0.878613095 C13.9013758,0.297055246 12.4735686,0 10.9819183,0 C9.49051961,0 8.0732451,0.294249784 6.71190523,0.878613095 C4.00773856,2.03910317 2.0279902,4.00558804 0.866052288,6.71559222 C0.28380719,8.07329187 0,9.49569698 0,10.9879149 C0,12.4804206 0.28380719,13.9146231 0.866052288,15.2726105 C2.0279902,17.9826146 4.0079902,19.9608968 6.71190523,21.1216746 C8.07349673,21.706038 9.49048366,22 10.9819183,22 C12.4733529,22 13.9013758,21.7029448 15.2640098,21.1216746 C17.9907516,19.9580554 19.9617647,17.9780108 21.1219052,15.2726105 C21.7059118,13.910271 22,12.4804206 22,10.9879149 C22,9.49569698 21.7061634,8.07789571 21.1218693,6.71559222 Z M19.3658954,15.8503198 C18.5023954,17.3319993 17.3194281,18.5074518 15.8295392,19.3765335 C14.3486732,20.2405079 12.7261013,20.6762177 10.9821699,20.6762177 C9.67115686,20.6762177 8.42017647,20.4235822 7.22922876,19.9059745 C6.03831699,19.3886186 5.01006863,18.7084739 4.14991176,17.8480963 C3.2897549,16.987467 2.60513072,15.9486188 2.09319935,14.7550027 C1.58277778,13.5657387 1.33542157,12.2999359 1.33542157,10.9879509 C1.33542157,9.24280978 1.76395425,7.62758312 2.62260131,6.15000392 C3.48430392,4.66702961 4.66752288,3.49031821 6.14687908,2.62375422 C7.62598366,1.75722619 9.23802288,1.32381831 10.9819183,1.32381831 C12.7261013,1.32381831 14.3483856,1.75977988 15.8292876,2.62375422 C17.3191765,3.4928719 18.4995915,4.66954733 19.3656438,6.14996796 C20.2316961,7.63013681 20.6646144,9.24280978 20.6646144,10.9879149 C20.6646144,12.733092 20.2345359,14.3593247 19.3658954,15.8503198 Z" id="Shape"></path>
            <path d="M12.2642181,10.8743398 L12.2642181,4.36984514 C12.2642181,3.98061645 11.9620802,3.66666667 11.6152753,3.66666667 C11.2909377,3.66666667 11,3.98061645 11,4.36984514 L11,10.9747617 C11,10.9873708 11.0224338,11.0377318 11.0224338,11.0752587 C11,11.3013206 11.0561013,11.4896679 11.1902362,11.6404884 L14.5353506,15.3949015 C14.7591873,15.6461439 15.1730263,15.6461439 15.3966959,15.3949015 C15.6539326,15.1061323 15.6370153,14.6871448 15.3966959,14.4154878 L12.2642181,10.8743398 Z" id="Path"></path>
        </g>
    </g>
</svg>