<?xml version="1.0" encoding="UTF-8"?>
<svg width="31px" height="49px" viewBox="0 0 31 49" version="1.1" xmlns="http://www.w3.org/2000/svg" xmlns:xlink="http://www.w3.org/1999/xlink">
    <!-- Generator: Sketch 55.2 (78181) - https://sketchapp.com -->
    <title>receipt</title>
    <desc>Created with Sketch.</desc>
    <defs>
        <linearGradient x1="100%" y1="50%" x2="0%" y2="50%" id="linearGradient-1">
            <stop stop-color="#173F85" offset="0%"></stop>
            <stop stop-color="#3BBAE6" offset="100%"></stop>
        </linearGradient>
        <linearGradient x1="100%" y1="50%" x2="0%" y2="50%" id="linearGradient-2">
            <stop stop-color="#173F85" offset="0%"></stop>
            <stop stop-color="#3BBAE6" offset="100%"></stop>
        </linearGradient>
        <linearGradient x1="100%" y1="50%" x2="0%" y2="50%" id="linearGradient-3">
            <stop stop-color="#173F85" offset="0%"></stop>
            <stop stop-color="#3BBAE6" offset="100%"></stop>
        </linearGradient>
        <linearGradient x1="100%" y1="50%" x2="0%" y2="50%" id="linearGradient-4">
            <stop stop-color="#173F85" offset="0%"></stop>
            <stop stop-color="#3BBAE6" offset="100%"></stop>
        </linearGradient>
        <linearGradient x1="100%" y1="50%" x2="0%" y2="50%" id="linearGradient-5">
            <stop stop-color="#173F85" offset="0%"></stop>
            <stop stop-color="#3BBAE6" offset="100%"></stop>
        </linearGradient>
        <linearGradient x1="100%" y1="50%" x2="0%" y2="50%" id="linearGradient-6">
            <stop stop-color="#173F85" offset="0%"></stop>
            <stop stop-color="#3BBAE6" offset="100%"></stop>
        </linearGradient>
        <linearGradient x1="100%" y1="50%" x2="0%" y2="50%" id="linearGradient-7">
            <stop stop-color="#173F85" offset="0%"></stop>
            <stop stop-color="#3BBAE6" offset="100%"></stop>
        </linearGradient>
        <linearGradient x1="100%" y1="50%" x2="0%" y2="50%" id="linearGradient-8">
            <stop stop-color="#173F85" offset="0%"></stop>
            <stop stop-color="#3BBAE6" offset="100%"></stop>
        </linearGradient>
    </defs>
    <g id="Page-1" stroke="none" stroke-width="1" fill="none" fill-rule="evenodd">
        <g id="Pixel-3" transform="translate(-345.000000, -156.000000)" fill-rule="nonzero">
            <g id="receipt" transform="translate(345.000000, 156.000000)">
                <path d="M18,22.3504187 L18,19.6495813 C18,19.2909583 17.673244,19 17.2704982,19 L3.72950176,19 C3.32637607,19 3,19.2909583 3,19.6495813 L3,22.3504187 C3,22.7090417 3.32637607,23 3.72950176,23 L17.2704982,23 C17.673244,23 18,22.70938 18,22.3504187 Z M16.5409965,21.7008374 L4.45900352,21.7008374 L4.45900352,20.2991626 L16.5409965,20.2991626 L16.5409965,21.7008374 Z" id="Shape" fill="url(#linearGradient-1)"></path>
                <path d="M17.7380229,41 L27.2619771,41 C27.6694273,41 28,40.7090662 28,40.3504736 L28,37.6495264 C28,37.2909336 27.6694273,37 27.2619771,37 L17.7380229,37 C17.3301883,37 17,37.2909336 17,37.6495264 L17,40.3504736 C17,40.7090662 17.3301883,41 17.7380229,41 Z M18.4760457,38.2990528 L26.5239543,38.2990528 L26.5239543,39.7009472 L18.4760457,39.7009472 L18.4760457,38.2990528 Z" id="Shape" fill="url(#linearGradient-2)"></path>
                <path d="M27.2924528,14 L3.70754717,14 C3.31655368,14 3,14.4479168 3,15 C3,15.5526043 3.31655368,16 3.70754717,16 L27.2924528,16 C27.6830778,16 28,15.5526043 28,15 C28,14.4479168 27.6830778,14 27.2924528,14 Z" id="Path" fill="url(#linearGradient-3)"></path>
                <path d="M12,26 C12,25.4479168 11.6921608,25 11.3127312,25 L3.68726882,25 C3.30748123,25 3,25.4479168 3,26 C3,26.5526043 3.30748123,27 3.68726882,27 L11.3127312,27 C11.6921608,27 12,26.5526043 12,26 Z" id="Path" fill="url(#linearGradient-4)"></path>
                <path d="M10.290826,29 L3.70917401,29 C3.31728152,29 3,29.4473959 3,30 C3,30.5520833 3.31728152,31 3.70917401,31 L10.290826,31 C10.6827185,31 11,30.5520833 11,30 C11,29.4473959 10.6827185,29 10.290826,29 Z" id="Path" fill="url(#linearGradient-5)"></path>
                <path d="M10.290826,33 L3.70917401,33 C3.31728152,33 3,33.4479167 3,34 C3,34.5526041 3.31728152,35 3.70917401,35 L10.290826,35 C10.6827185,35 11,34.5526041 11,34 C11,33.4479167 10.6827185,33 10.290826,33 Z" id="Path" fill="url(#linearGradient-5)"></path>
                <path d="M27.3976471,33 L24.6023529,33 C24.2694902,33 24,33.4479167 24,34 C24,34.5526041 24.2694902,35 24.6023529,35 L27.3976471,35 C27.7301961,35 28,34.5526041 28,34 C28,33.4479167 27.7301961,33 27.3976471,33 Z" id="Path" fill="url(#linearGradient-6)"></path>
                <path d="M27.3976471,29 L24.6023529,29 C24.2694902,29 24,29.4479167 24,30 C24,30.5520833 24.2694902,31 24.6023529,31 L27.3976471,31 C27.7301961,31 28,30.5520833 28,30 C28,29.4479167 27.7301961,29 27.3976471,29 Z" id="Path" fill="url(#linearGradient-6)"></path>
                <path d="M27.3976471,25 L24.6023529,25 C24.2694902,25 24,25.4479168 24,26 C24,26.5526043 24.2694902,27 24.6023529,27 L27.3976471,27 C27.7301961,27 28,26.5526043 28,26 C28,25.4479168 27.7301961,25 27.3976471,25 Z" id="Path" fill="url(#linearGradient-6)"></path>
                <path d="M30.2855685,16.8852463 C30.6799942,16.8852463 31,16.5637436 31,16.1674729 L31,0.717773438 C31,0.321502686 30.6799942,0 30.2855685,0 C28.0209696,0 27.8311988,2.87109375 26.5883857,2.87109375 C25.3463168,2.87109375 25.1587785,0 22.8915749,0 C20.6277202,0 20.4372052,2.87109375 19.1955084,2.87109375 C17.9493465,2.87109375 17.7699943,0 15.4986976,0 C13.2348429,0 13.0446999,2.87109375 11.8026311,2.87109375 C10.5624227,2.87109375 10.3715355,0 8.10656451,0 C5.84233772,0 5.65256691,2.87109375 4.41049799,2.87109375 C3.16433604,2.87109375 2.98610025,0 0.714431467,0 C0.319633685,0 0,0.321502686 0,0.717773438 L0,48.2822266 C0,48.6784973 0.319633685,49 0.714431467,49 C2.97865825,49 3.16880124,46.1289062 4.41049799,46.1289062 C5.65628786,46.1289062 5.8352678,49 8.10656451,49 C10.3704193,49 10.5605622,46.1289062 11.8026311,46.1289062 C13.0487931,46.1289062 13.227773,49 15.4986976,49 C17.7629244,49 17.9534395,46.1289062 19.1955084,46.1289062 C20.4416704,46.1289062 20.6202782,49 22.8915749,49 C25.1561739,49 25.3459447,46.1289062 26.5883857,46.1289062 C27.8308266,46.1289062 28.0183649,49 30.2855685,49 C30.6799942,49 31,48.6784973 31,48.2822266 L31,18.8471604 C31,18.4505157 30.6799942,18.1293869 30.2855685,18.1293869 C29.8907707,18.1293869 29.5711371,18.4505157 29.5711371,18.8471604 L29.5711371,47.2022019 C28.8578218,46.4100342 28.3379985,44.6933594 26.5883857,44.6933594 C24.3241588,44.6933594 24.134388,47.5644531 22.8915749,47.5644531 C21.6513666,47.5644531 21.4604793,44.6933594 19.1955084,44.6933594 C16.9312816,44.6933594 16.7407666,47.5644531 15.4986976,47.5644531 C14.2529078,47.5644531 14.0739278,44.6933594 11.8026311,44.6933594 C9.53840424,44.6933594 9.34826135,47.5644531 8.10656451,47.5644531 C6.86003048,47.5644531 6.68179469,44.6933594 4.41049799,44.6933594 C2.66200137,44.6933594 2.14255025,46.4089126 1.42886293,47.2018281 L1.42886293,1.79817195 C2.14106176,2.589592 2.66162929,4.30664062 4.41087016,4.30664062 C6.67472477,4.30664062 6.86486776,1.43554688 8.10656451,1.43554688 C9.35309862,1.43554688 9.53133441,4.30664062 11.8026311,4.30664062 C14.0668579,4.30664062 14.2570009,1.43554688 15.4990697,1.43554688 C16.7452317,1.43554688 16.9242117,4.30664062 19.1955084,4.30664062 C21.4597352,4.30664062 21.6495061,1.43554688 22.891947,1.43554688 C24.134388,1.43554688 24.3219263,4.30664062 26.5887578,4.30664062 C28.3379985,4.30664062 28.858194,2.58996582 29.5711371,1.79779813 L29.5711371,16.1674729 C29.5711371,16.5637436 29.8907707,16.8852463 30.2855685,16.8852463 Z" id="Path" fill="url(#linearGradient-7)"></path>
                <path d="M28,8.64952639 C28,8.29093378 27.6830778,8 27.2924528,8 L10.2741008,8 C9.88310736,8 9.56655368,8.29093378 9.56655368,8.64952639 C9.56655368,9.00845744 9.88310736,9.29905277 10.2741008,9.29905277 L26.5849057,9.29905277 L26.5849057,10.7009472 L4.41509434,10.7009472 L4.41509434,9.29905277 L7.63259142,9.29905277 C8.02358491,9.29905277 8.34013858,9.00845744 8.34013858,8.64952639 C8.34013858,8.29093378 8.02358491,8 7.63259142,8 L3.70754717,8 C3.31655368,8 3,8.29093378 3,8.64952639 L3,11.3504736 C3,11.7090664 3.31655368,12 3.70754717,12 L27.2924528,12 C27.6830778,12 28,11.7090664 28,11.3504736 L28,8.64952639 Z" id="Path" fill="url(#linearGradient-8)"></path>
            </g>
        </g>
    </g>
</svg>