<?xml version="1.0" encoding="UTF-8"?>
<svg width="32px" height="24px" viewBox="0 0 32 24" version="1.1" xmlns="http://www.w3.org/2000/svg" xmlns:xlink="http://www.w3.org/1999/xlink">
    <!-- Generator: Sketch 54 (76480) - https://sketchapp.com -->
    <title>Group 1060 Copy</title>
    <desc>Created with Sketch.</desc>
    <g id="Styleguide" stroke="none" stroke-width="1" fill="none" fill-rule="evenodd" stroke-linecap="round" stroke-linejoin="round">
        <g id="UI-StyleGuide" transform="translate(-588.000000, -567.000000)" stroke="#DF5435" stroke-width="1.5">
            <g id="Group-1060-Copy" transform="translate(589.000000, 568.000000)">
                <g id="Group-4">
                    <polygon id="Stroke-240" points="27.148375 7.38077419 21.874625 12.3653441 14.999625 4.96577419 8.124625 12.3653441 2.929625 7.34244086 5.624625 17.9298602 24.374625 17.9298602"></polygon>
                    <path d="M17.5,2.47311828 C17.5,3.83827957 16.38,4.94623656 15,4.94623656 C13.62,4.94623656 12.5,3.83827957 12.5,2.47311828 C12.5,1.10795699 13.62,-4.31210623e-13 15,-4.31210623e-13 C16.38,-4.31210623e-13 17.5,1.10795699 17.5,2.47311828 L17.5,2.47311828 Z" id="Stroke-241"></path>
                    <path d="M0.625,5.56451613 C0.625,6.5883871 1.465,7.41935484 2.5,7.41935484 C3.535,7.41935484 4.375,6.5883871 4.375,5.56451613 C4.375,4.54064516 3.535,3.70967742 2.5,3.70967742 C1.465,3.70967742 0.625,4.54064516 0.625,5.56451613 L0.625,5.56451613 Z" id="Stroke-242"></path>
                    <path d="M25.625,5.56451613 C25.625,6.5883871 26.465,7.41935484 27.5,7.41935484 C28.535,7.41935484 29.375,6.5883871 29.375,5.56451613 C29.375,4.54064516 28.535,3.70967742 27.5,3.70967742 C26.465,3.70967742 25.625,4.54064516 25.625,5.56451613 L25.625,5.56451613 Z" id="Stroke-243"></path>
                    <path d="M25,21.6397849 L5,21.6397849 C2.5,21.6397849 2.5,17.9301075 5,17.9301075 L25,17.9301075 C27.48,17.9301075 27.4825,21.6397849 25,21.6397849 L25,21.6397849 Z" id="Stroke-244"></path>
                </g>
            </g>
        </g>
    </g>
</svg>