<?xml version="1.0" encoding="UTF-8"?>
<svg width="57px" height="27px" viewBox="0 0 57 27" version="1.1" xmlns="http://www.w3.org/2000/svg" xmlns:xlink="http://www.w3.org/1999/xlink">
    <!-- Generator: Sketch 55.2 (78181) - https://sketchapp.com -->
    <title>bill desk</title>
    <desc>Created with Sketch.</desc>
    <defs>
        <linearGradient x1="100%" y1="50%" x2="0%" y2="50%" id="linearGradient-1">
            <stop stop-color="#173F85" offset="0%"></stop>
            <stop stop-color="#3BBAE6" offset="100%"></stop>
        </linearGradient>
    </defs>
    <g id="Page-2" stroke="none" stroke-width="1" fill="none" fill-rule="evenodd">
        <g id="Desktop-HD" transform="translate(-354.000000, -196.000000)">
            <g id="bill-desk" transform="translate(355.000000, 197.000000)">
                <rect id="Rectangle" stroke="url(#linearGradient-1)" stroke-width="1.5" stroke-linejoin="round" x="0" y="0" width="55" height="25"></rect>
                <path d="M6.5385,16 C6.4784997,16 6.42750021,15.9790002 6.3855,15.937 C6.34349979,15.8949998 6.3225,15.8440003 6.3225,15.784 L6.3225,9.925 C6.3225,9.85899967 6.34199981,9.80500021 6.381,9.763 C6.42000019,9.72099979 6.47249967,9.7 6.5385,9.7 L9.1485,9.7 C9.85050351,9.7 10.3754983,9.85449845 10.7235,10.1635 C11.0715017,10.4725015 11.2455,10.8939973 11.2455,11.428 C11.2455,11.7400016 11.1690008,12.0054989 11.016,12.2245 C10.8629992,12.4435011 10.684501,12.6009995 10.4805,12.697 C10.7325013,12.8110006 10.9454991,12.9969987 11.1195,13.255 C11.2935009,13.5130013 11.3805,13.8069983 11.3805,14.137 C11.3805,14.6950028 11.1915019,15.1449983 10.8135,15.487 C10.4354981,15.8290017 9.90750339,16 9.2295,16 L6.5385,16 Z M8.9865,12.283 C9.29250153,12.283 9.52799917,12.2080007 9.693,12.058 C9.85800082,11.9079992 9.9405,11.7070013 9.9405,11.455 C9.9405,11.2029987 9.85950081,11.0080007 9.6975,10.87 C9.53549919,10.7319993 9.29850156,10.663 8.9865,10.663 L7.5915,10.663 L7.5915,12.283 L8.9865,12.283 Z M9.0765,15.037 C9.38850156,15.037 9.63149913,14.9515009 9.8055,14.7805 C9.97950087,14.6094991 10.0665,14.3920013 10.0665,14.128 C10.0665,13.8639987 9.97800089,13.6465009 9.801,13.4755 C9.62399911,13.3044991 9.38250153,13.219 9.0765,13.219 L7.5915,13.219 L7.5915,15.037 L9.0765,15.037 Z M12.7215,16 C12.6614997,16 12.6105002,15.9790002 12.5685,15.937 C12.5264998,15.8949998 12.5055,15.8440003 12.5055,15.784 L12.5055,9.916 C12.5055,9.84999967 12.5264998,9.79750019 12.5685,9.7585 C12.6105002,9.7194998 12.6614997,9.7 12.7215,9.7 L13.5855,9.7 C13.6515003,9.7 13.7039998,9.7194998 13.743,9.7585 C13.7820002,9.79750019 13.8015,9.84999967 13.8015,9.916 L13.8015,15.784 C13.8015,15.8440003 13.7820002,15.8949998 13.743,15.937 C13.7039998,15.9790002 13.6515003,16 13.5855,16 L12.7215,16 Z M15.4215,16 C15.3614997,16 15.3105002,15.9790002 15.2685,15.937 C15.2264998,15.8949998 15.2055,15.8440003 15.2055,15.784 L15.2055,9.916 C15.2055,9.84999967 15.2264998,9.79750019 15.2685,9.7585 C15.3105002,9.7194998 15.3614997,9.7 15.4215,9.7 L16.2675,9.7 C16.3335003,9.7 16.3859998,9.7194998 16.425,9.7585 C16.4640002,9.79750019 16.4835,9.84999967 16.4835,9.916 L16.4835,14.92 L19.3365,14.92 C19.4025003,14.92 19.4564998,14.9409998 19.4985,14.983 C19.5405002,15.0250002 19.5615,15.0759997 19.5615,15.136 L19.5615,15.784 C19.5615,15.8440003 19.5405002,15.8949998 19.4985,15.937 C19.4564998,15.9790002 19.4025003,16 19.3365,16 L15.4215,16 Z M20.6505,16 C20.5904997,16 20.5395002,15.9790002 20.4975,15.937 C20.4554998,15.8949998 20.4345,15.8440003 20.4345,15.784 L20.4345,9.916 C20.4345,9.84999967 20.4554998,9.79750019 20.4975,9.7585 C20.5395002,9.7194998 20.5904997,9.7 20.6505,9.7 L21.4965,9.7 C21.5625003,9.7 21.6149998,9.7194998 21.654,9.7585 C21.6930002,9.79750019 21.7125,9.84999967 21.7125,9.916 L21.7125,14.92 L24.5655,14.92 C24.6315003,14.92 24.6854998,14.9409998 24.7275,14.983 C24.7695002,15.0250002 24.7905,15.0759997 24.7905,15.136 L24.7905,15.784 C24.7905,15.8440003 24.7695002,15.8949998 24.7275,15.937 C24.6854998,15.9790002 24.6315003,16 24.5655,16 L20.6505,16 Z M25.8795,16 C25.8194997,16 25.7685002,15.9790002 25.7265,15.937 C25.6844998,15.8949998 25.6635,15.8440003 25.6635,15.784 L25.6635,9.925 C25.6635,9.85899967 25.6829998,9.80500021 25.722,9.763 C25.7610002,9.72099979 25.8134997,9.7 25.8795,9.7 L28.0755,9.7 C29.8455088,9.7 30.7484998,10.5159918 30.7845,12.148 C30.7965001,12.4960017 30.8025,12.7299994 30.8025,12.85 C30.8025,12.9640006 30.7965001,13.1949983 30.7845,13.543 C30.7604999,14.3830042 30.5340021,15.002498 30.105,15.4015 C29.6759979,15.800502 29.0145045,16 28.1205,16 L25.8795,16 Z M28.0755,14.956 C28.5735025,14.956 28.9334989,14.8450011 29.1555,14.623 C29.3775011,14.4009989 29.4944999,14.0320026 29.5065,13.516 C29.5185001,13.1559982 29.5245,12.9310005 29.5245,12.841 C29.5245,12.7449995 29.5185001,12.5230017 29.5065,12.175 C29.4944999,11.6829975 29.3715012,11.3215012 29.1375,11.0905 C28.9034988,10.8594988 28.5345025,10.744 28.0305,10.744 L26.9325,10.744 L26.9325,14.956 L28.0755,14.956 Z M32.2065,16 C32.1464997,16 32.0955002,15.9790002 32.0535,15.937 C32.0114998,15.8949998 31.9905,15.8440003 31.9905,15.784 L31.9905,9.925 C31.9905,9.85899967 32.0099998,9.80500021 32.049,9.763 C32.0880002,9.72099979 32.1404997,9.7 32.2065,9.7 L36.1755,9.7 C36.2415003,9.7 36.2954998,9.72099979 36.3375,9.763 C36.3795002,9.80500021 36.4005,9.85899967 36.4005,9.925 L36.4005,10.528 C36.4005,10.5940003 36.3795002,10.6464998 36.3375,10.6855 C36.2954998,10.7245002 36.2415003,10.744 36.1755,10.744 L33.2235,10.744 L33.2235,12.319 L35.9775,12.319 C36.0435003,12.319 36.0974998,12.3399998 36.1395,12.382 C36.1815002,12.4240002 36.2025,12.4779997 36.2025,12.544 L36.2025,13.111 C36.2025,13.1770003 36.1815002,13.2294998 36.1395,13.2685 C36.0974998,13.3075002 36.0435003,13.327 35.9775,13.327 L33.2235,13.327 L33.2235,14.956 L36.2475,14.956 C36.3135003,14.956 36.3674998,14.9754998 36.4095,15.0145 C36.4515002,15.0535002 36.4725,15.1059997 36.4725,15.172 L36.4725,15.784 C36.4725,15.8500003 36.4515002,15.9024998 36.4095,15.9415 C36.3674998,15.9805002 36.3135003,16 36.2475,16 L32.2065,16 Z M39.7935,16.09 C39.2534973,16.09 38.7915019,16.0090008 38.4075,15.847 C38.0234981,15.6849992 37.732501,15.4720013 37.5345,15.208 C37.336499,14.9439987 37.2315001,14.6560016 37.2195,14.344 C37.2195,14.2959998 37.2374998,14.2525002 37.2735,14.2135 C37.3095002,14.1744998 37.3544997,14.155 37.4085,14.155 L38.2275,14.155 C38.2935003,14.155 38.3474998,14.1699998 38.3895,14.2 C38.4315002,14.2300002 38.4704998,14.2719997 38.5065,14.326 C38.5665003,14.530001 38.7029989,14.7009993 38.916,14.839 C39.1290011,14.9770007 39.4214981,15.046 39.7935,15.046 C40.2135021,15.046 40.5299989,14.9755007 40.743,14.8345 C40.9560011,14.6934993 41.0625,14.5000012 41.0625,14.254 C41.0625,14.0919992 41.0085005,13.9570005 40.9005,13.849 C40.7924995,13.7409995 40.6290011,13.6465004 40.41,13.5655 C40.1909989,13.4844996 39.8655022,13.3870006 39.4335,13.273 C38.7254965,13.1049992 38.2065017,12.8830014 37.8765,12.607 C37.5464983,12.3309986 37.3815,11.9350026 37.3815,11.419 C37.3815,11.0709983 37.477499,10.7605014 37.6695,10.4875 C37.861501,10.2144986 38.1359982,10.0000008 38.493,9.844 C38.8500018,9.68799922 39.2654976,9.61 39.7395,9.61 C40.2375025,9.61 40.6679982,9.69699913 41.031,9.871 C41.3940018,10.0450009 41.6699991,10.2624987 41.859,10.5235 C42.0480009,10.7845013 42.1484999,11.0439987 42.1605,11.302 C42.1605,11.3500002 42.1425002,11.3934998 42.1065,11.4325 C42.0704998,11.4715002 42.0255003,11.491 41.9715,11.491 L41.1165,11.491 C40.9844993,11.491 40.8945002,11.4370005 40.8465,11.329 C40.8164999,11.136999 40.699501,10.9765006 40.4955,10.8475 C40.291499,10.7184994 40.0395015,10.654 39.7395,10.654 C39.4094984,10.654 39.1500009,10.7169994 38.961,10.843 C38.7719991,10.9690006 38.6775,11.1519988 38.6775,11.392 C38.6775,11.5540008 38.7254995,11.6889995 38.8215,11.797 C38.9175005,11.9050005 39.067499,11.9994996 39.2715,12.0805 C39.475501,12.1615004 39.772498,12.2529995 40.1625,12.355 C40.6965027,12.4750006 41.1209984,12.61 41.436,12.76 C41.7510016,12.9100007 41.9834993,13.0989989 42.1335,13.327 C42.2835008,13.5550011 42.3585,13.8459982 42.3585,14.2 C42.3585,14.5900019 42.2520011,14.9274986 42.039,15.2125 C41.8259989,15.4975014 41.5260019,15.7149993 41.139,15.865 C40.7519981,16.0150008 40.3035025,16.09 39.7935,16.09 Z M43.6005,16 C43.5404997,16 43.4895002,15.9790002 43.4475,15.937 C43.4054998,15.8949998 43.3845,15.8440003 43.3845,15.784 L43.3845,9.925 C43.3845,9.85899967 43.4039998,9.80500021 43.443,9.763 C43.4820002,9.72099979 43.5344997,9.7 43.6005,9.7 L44.4105,9.7 C44.4765003,9.7 44.5304998,9.72099979 44.5725,9.763 C44.6145002,9.80500021 44.6355,9.85899967 44.6355,9.925 L44.6355,12.031 L46.6425,9.862 C46.7325004,9.75399946 46.8494993,9.7 46.9935,9.7 L47.9115,9.7 C47.9595002,9.7 48.0029998,9.71799982 48.042,9.754 C48.0810002,9.79000018 48.1005,9.83499973 48.1005,9.889 C48.1005,9.93100021 48.0855002,9.96699985 48.0555,9.997 L45.6075,12.715 L48.2355,15.694 C48.2595001,15.7360002 48.2715,15.7749998 48.2715,15.811 C48.2715,15.8650003 48.2535002,15.9099998 48.2175,15.946 C48.1814998,15.9820002 48.1395002,16 48.0915,16 L47.1465,16 C47.0204994,16 46.9305003,15.9745003 46.8765,15.9235 C46.8224997,15.8724997 46.7925,15.844 46.7865,15.838 L44.6355,13.462 L44.6355,15.784 C44.6355,15.8440003 44.6145002,15.8949998 44.5725,15.937 C44.5304998,15.9790002 44.4765003,16 44.4105,16 L43.6005,16 Z" id="BILLDESK" fill="#E94D23" fill-rule="nonzero"></path>
            </g>
        </g>
    </g>
</svg>