<?xml version="1.0" encoding="UTF-8"?>
<svg width="39px" height="24px" viewBox="0 0 39 24" version="1.1" xmlns="http://www.w3.org/2000/svg" xmlns:xlink="http://www.w3.org/1999/xlink">
    <!-- Generator: Sketch 55.2 (78181) - https://sketchapp.com -->
    <title>cash</title>
    <desc>Created with Sketch.</desc>
    <defs>
        <linearGradient x1="100%" y1="50%" x2="0%" y2="50%" id="linearGradient-1">
            <stop stop-color="#173F85" offset="0%"></stop>
            <stop stop-color="#3BBAE6" offset="100%"></stop>
        </linearGradient>
        <linearGradient x1="40.8403518%" y1="32.3736042%" x2="68%" y2="74.3013506%" id="linearGradient-2">
            <stop stop-color="#173C83" offset="0%"></stop>
            <stop stop-color="#173F85" offset="100%"></stop>
        </linearGradient>
    </defs>
    <g id="Page-2" stroke="none" stroke-width="1" fill="none" fill-rule="evenodd">
        <g id="Desktop-HD" transform="translate(-288.000000, -201.000000)">
            <g id="cash" transform="translate(289.000000, 201.000000)">
                <g id="Group-825">
                    <polyline id="Stroke-936" stroke="#3E5996" stroke-linecap="round" points="37.2083333 5.6 27.7083333 12 19.7916667 12"></polyline>
                    <polyline id="Stroke-937" stroke="#3E5996" stroke-linecap="round" points="37.2083333 8.8 27.7083333 15.2 19.7916667 15.2"></polyline>
                    <polyline id="Stroke-938" stroke="#3E5996" stroke-linecap="round" points="37.2083333 12 27.7083333 18.4 19.7916667 18.4"></polyline>
                    <polyline id="Stroke-939" stroke="#3E5996" stroke-linecap="round" points="37.2083333 15.2 27.7083333 21.6 19.7916667 21.6"></polyline>
                    <path d="M8.70833333,12 L0.791666667,12" id="Stroke-941" stroke="#3E5996" stroke-linecap="round"></path>
                    <path d="M8.70833333,15.2 L0.791666667,15.2" id="Stroke-942" stroke="#3E5996" stroke-linecap="round"></path>
                    <path d="M8.70833333,18.4 L0.791666667,18.4" id="Stroke-943" stroke="#3E5996" stroke-linecap="round"></path>
                    <path d="M8.70833333,21.6 L0.791666667,21.6" id="Stroke-944" stroke="#3E5996" stroke-linecap="round"></path>
                    <polyline id="Stroke-945" stroke="#3E5996" points="27.1810833 2.4 37.2083333 2.4 27.7083333 8.8 19.7916667 8.8"></polyline>
                    <polyline id="Stroke-946" stroke="url(#linearGradient-1)" points="8.70833333 8.8 0.791666667 8.8 10.2916667 2.4 16.09775 2.4"></polyline>
                    <polygon id="Stroke-940" stroke="#DF5435" stroke-linecap="round" points="19.7916667 23.2 8.70833333 23.2 8.70833333 8 18.2083333 0.8 29.2916667 0.8 19.7916667 8"></polygon>
                </g>
                <path d="M11.3080272,12.605042 L14.5693421,12.605042 C14.5144658,11.9887955 14.2949604,11.4845938 13.8833877,11.092437 C13.4032197,10.6442577 12.7858608,10.4341737 12.0175919,10.4341737 L11.2372085,10.4341737 C11.1486054,10.4341737 11.0767785,10.3599936 11.0767785,10.2684879 C11.0767785,10.2510305 11.0794499,10.2336829 11.0846939,10.2170868 L11.0846939,10.2170868 C11.1256069,10.0876081 11.242521,10 11.3743993,10 L16.8428828,10 C16.9296562,10 17,10.0726483 17,10.1622644 C17,10.1809517 16.9968744,10.1994985 16.990761,10.2170868 L16.990761,10.2170868 C16.9454972,10.3473126 16.8259456,10.4341737 16.6919728,10.4341737 L13.759916,10.4341737 C14.5830612,10.9103641 15.0357911,11.6386555 15.0906674,12.605042 L16.7581583,12.605042 C16.843229,12.605042 16.9121923,12.6762646 16.9121923,12.7641222 C16.9121923,12.7839717 16.9085953,12.803646 16.901587,12.8221289 L16.901587,12.8221289 C16.8519389,12.9530648 16.7296863,13.0392157 16.5935293,13.0392157 L15.1043865,13.0392157 C15.0495102,13.6694678 14.7888475,14.1876751 14.2949604,14.6078431 C13.8010732,15 13.1699952,15.2521008 12.4291645,15.3361345 C12.6486699,15.4761905 12.9504898,15.7983193 13.3071861,16.2885154 L15.8043454,19.700472 C15.8645985,19.782798 15.8488219,19.8999813 15.7691075,19.9622083 C15.7376927,19.9867314 15.6993887,20 15.6600095,20 L15.6600095,20 C15.4314324,20 15.2164887,19.8876955 15.0810735,19.6975154 L12.8132989,16.512605 C12.511479,16.092437 12.2508164,15.7983193 12.0450301,15.6582633 C11.7706483,15.4901961 11.4276711,15.3921569 11.0160985,15.3921569 L11.0160985,15.3921569 C11.0160985,15.1446343 11.2103901,14.9439776 11.450061,14.9439776 L11.6334574,14.9439776 C12.5663554,14.9439776 13.3071861,14.7338936 13.8285114,14.3417367 C14.2812413,14.0056022 14.5281848,13.5714286 14.5693421,13.0392157 L11.1571172,13.0392157 C11.0703438,13.0392157 11,12.9665674 11,12.8769512 C11,12.858264 11.0031256,12.8397172 11.009239,12.8221289 L11.009239,12.8221289 C11.0545028,12.6919031 11.1740543,12.605042 11.3080272,12.605042 Z" id="₹" fill="url(#linearGradient-2)" fill-rule="nonzero"></path>
            </g>
        </g>
    </g>
</svg>