<?xml version="1.0" encoding="UTF-8"?>
<svg width="29px" height="29px" viewBox="0 0 29 29" version="1.1" xmlns="http://www.w3.org/2000/svg" xmlns:xlink="http://www.w3.org/1999/xlink">
    <!-- Generator: Sketch 55.2 (78181) - https://sketchapp.com -->
    <title>info</title>
    <desc>Created with Sketch.</desc>
    <g id="Page-2" stroke="none" stroke-width="1" fill="none" fill-rule="evenodd">
        <g id="Desktop-HD" transform="translate(-224.000000, -66.000000)">
            <g id="info" transform="translate(225.000000, 67.000000)">
                <g id="path-1-link">
                    <circle id="path-1" stroke="#3E5996" fill="#FFFFFF" cx="13.5" cy="13.5" r="13.5"></circle>
                    <path d="M12.0917647,16.7788236 C11.9505875,16.7788236 11.88,16.708236 11.88,16.5670589 L11.88,15.3176471 C11.88,14.7105852 12.0282338,14.2164725 12.3247059,13.8352942 C12.621178,13.4541158 13.0729382,13.0235318 13.68,12.5435294 C14.0894138,12.2188219 14.4141165,11.9400012 14.6541177,11.7070589 C14.8941189,11.4741165 15.0952933,11.1952958 15.2576471,10.8705883 C15.4200008,10.5458808 15.5011765,10.1647081 15.5011765,9.72705886 C15.5011765,9.02117296 15.2752964,8.45294336 14.8235294,8.02235294 C14.3717625,7.59176255 13.7717685,7.37647058 13.0235294,7.37647058 C12.2611727,7.37647058 11.6505905,7.59529192 11.1917647,8.03294117 C10.7329389,8.47059046 10.5035294,9.04234936 10.5035294,9.74823526 L10.5035294,10.4047059 C10.5035294,10.5458831 10.4329419,10.6164706 10.2917647,10.6164706 L9.2117647,10.5529412 C9.0705875,10.5529412 9,10.4823537 9,10.3411765 L9,9.74823526 C9,8.63293556 9.3741139,7.72941522 10.122353,7.03764705 C10.870592,6.34587889 11.8517587,6 13.0658824,6 C14.2517707,6 15.2047023,6.33882014 15.9247059,7.01647058 C16.6447095,7.69412103 17.0047059,8.59764136 17.0047059,9.72705886 C17.0047059,10.3482384 16.902354,10.8847037 16.6976471,11.3364706 C16.4929402,11.7882376 16.2494132,12.1552927 15.9670588,12.4376471 C15.6847045,12.7200014 15.3105906,13.0447041 14.8447059,13.4117647 C14.3647035,13.7788254 14.0047071,14.103528 13.7647059,14.3858824 C13.5247047,14.6682367 13.4047059,15.0070569 13.4047059,15.402353 L13.4047059,16.5670589 C13.4047059,16.708236 13.3341184,16.7788236 13.1929412,16.7788236 L12.0917647,16.7788236 Z" id="?-path" fill="#3E5996" fill-rule="nonzero"></path>
                    <path d="M13.1858824,21.3717647 C12.8470572,21.3717647 12.564707,21.2588247 12.3388236,21.0329412 C12.1129401,20.8070577 12,20.5247076 12,20.1858824 C12,19.8329394 12.1129401,19.54706 12.3388236,19.3282353 C12.564707,19.1094107 12.8470572,19 13.1858824,19 C13.5388253,19 13.8247048,19.1094107 14.0435294,19.3282353 C14.2623541,19.54706 14.3717647,19.8329394 14.3717647,20.1858824 C14.3717647,20.5247076 14.2588247,20.8070577 14.0329412,21.0329412 C13.8070577,21.2588247 13.5247076,21.3717647 13.1858824,21.3717647 Z" id="?-path" fill="#3E5996" fill-rule="nonzero"></path>
                </g>
            </g>
        </g>
    </g>
</svg>