<?xml version="1.0" encoding="UTF-8"?>
<svg width="32px" height="31px" viewBox="0 0 32 31" version="1.1" xmlns="http://www.w3.org/2000/svg" xmlns:xlink="http://www.w3.org/1999/xlink">
    <!-- Generator: Sketch 55.2 (78181) - https://sketchapp.com -->
    <title>limit</title>
    <desc>Created with Sketch.</desc>
    <defs>
        <linearGradient x1="40.2303725%" y1="32.3736042%" x2="69.1986952%" y2="74.3013506%" id="linearGradient-1">
            <stop stop-color="#3BBAE6" offset="0%"></stop>
            <stop stop-color="#173F85" offset="100%"></stop>
        </linearGradient>
    </defs>
    <g id="Page-2" stroke="none" stroke-width="1" fill="none" fill-rule="evenodd">
        <g id="Desktop-HD" transform="translate(-156.000000, -123.000000)">
            <g id="limit" transform="translate(156.000000, 123.000000)">
                <path d="M28.0106716,22.0051875 L30.4163634,22.0051875 L30.4163634,19.7818125 L28.0099305,19.7818125 C27.8550354,19.1392571 27.6015706,18.1654189 27.2665821,17.6162452 L28.9682051,15.9153634 L26.8715625,13.8187207 L25.1691984,15.5203437 C24.6207659,15.1853552 23.6476687,14.9326316 23.0051134,14.7777365 L23.0051134,12.3705625 L20.7817384,12.3705625 L20.7817384,14.7777365 C20.139183,14.9326316 19.1653447,15.1853552 18.6169123,15.5203437 L16.9145481,13.8187207 L14.8179055,15.9153634 L16.5202696,17.6169864 C16.1852811,18.1654189 15.9318164,19.1392571 15.7761801,19.7818125 L13.3704884,19.7818125 L13.3704884,22.0051875 L15.7761801,22.0051875 C15.9318164,22.6477429 16.1852811,23.6215811 16.5202696,24.1700136 L14.8179055,25.8723777 L16.9145481,27.9682792 L18.6161711,26.2659151 C19.1653447,26.6016447 20.139183,26.8551095 20.7817384,27.0107457 L20.7817384,29.4164375 L23.0051134,29.4164375 L23.0051134,27.0107457 C23.6476687,26.8551095 24.621507,26.6016447 25.1691984,26.2666562 L26.8723036,27.9682792 L28.9682051,25.8723777 L27.2665821,24.1700136 C27.6015706,23.6215811 27.8550354,22.6477429 28.0106716,22.0051875 L28.0106716,22.0051875 Z" id="Stroke-3034" stroke="#DF5435" stroke-width="1.5" fill="#FFFFFF" fill-rule="nonzero" stroke-linecap="round" stroke-linejoin="round"></path>
                <path d="M25.2285625,20.8935 C25.2285625,22.7359367 23.7351956,24.2285625 21.8935,24.2285625 C20.0518044,24.2285625 18.5584375,22.7359367 18.5584375,20.8935 C18.5584375,19.0518044 20.0518044,17.5584375 21.8935,17.5584375 C23.7351956,17.5584375 25.2285625,19.0518044 25.2285625,20.8935 L25.2285625,20.8935 Z" id="Stroke-3035" stroke="#DF5435" stroke-width="1.5"></path>
                <path d="M1.15951072,7.81512605 L11.2639821,7.81512605 C11.0939597,5.96638655 10.4138702,4.45378151 9.13870246,3.27731092 C7.65100671,1.93277311 5.73825503,1.30252101 3.35794183,1.30252101 L0.940094416,1.30252101 C0.665577247,1.30252101 0.443037112,1.07998087 0.443037112,0.805463705 C0.443037112,0.753091622 0.451314013,0.70104859 0.467561521,0.651260504 L0.467561521,0.651260504 C0.594321218,0.262824168 0.956554201,-1.77635684e-15 1.36515034,-1.77635684e-15 L18.3080508,-1.77635684e-15 C18.5768993,-1.77635684e-15 18.7948442,0.217944804 18.7948442,0.486793345 C18.7948442,0.542855029 18.7851601,0.598495416 18.7662192,0.651260504 L18.7662192,0.651260504 C18.6259792,1.04193775 18.2555748,1.30252101 17.8404893,1.30252101 L8.75615213,1.30252101 C11.3064877,2.73109244 12.7091723,4.91596639 12.8791946,7.81512605 L18.0455507,7.81512605 C18.3091234,7.81512605 18.5227912,8.02879389 18.5227912,8.29236654 C18.5227912,8.35191518 18.5116466,8.41093787 18.4899329,8.46638655 L18.4899329,8.46638655 C18.3361093,8.85919448 17.9573364,9.11764706 17.5354836,9.11764706 L12.9217002,9.11764706 C12.7516779,11.0084034 11.9440716,12.5630252 10.4138702,13.8235294 C8.8836689,15 6.92841163,15.7563025 4.63310962,16.0084034 C5.31319911,16.4285714 6.24832215,17.394958 7.35346756,18.8655462 L15.0903697,29.101416 C15.2770508,29.3483939 15.2281706,29.6999439 14.9811928,29.886625 C14.8838611,29.9601943 14.7651845,30 14.6431767,30 L14.6431767,30 C13.9349805,30 13.2690244,29.6630864 12.8494699,29.0925463 L5.82326622,19.5378151 C4.88814318,18.2773109 4.08053691,17.394958 3.44295302,16.9747899 C2.59284116,16.4705882 1.53020134,16.1764706 0.255033557,16.1764706 L0.255033557,16.1764706 C0.255033557,15.4339029 0.857003641,14.8319328 1.59957137,14.8319328 L2.16778523,14.8319328 C5.05816555,14.8319328 7.35346756,14.2016807 8.96868009,13.0252101 C10.3713647,12.0168067 11.1364653,10.7142857 11.2639821,9.11764706 L0.691949195,9.11764706 C0.423100654,9.11764706 0.20515585,8.89970225 0.20515585,8.63085371 C0.20515585,8.57479203 0.214839857,8.51915164 0.233780761,8.46638655 L0.233780761,8.46638655 C0.374020837,8.07570931 0.7444252,7.81512605 1.15951072,7.81512605 Z" id="₹" fill="url(#linearGradient-1)" fill-rule="nonzero"></path>
            </g>
        </g>
    </g>
</svg>