<?xml version="1.0" encoding="UTF-8"?>
<svg width="50px" height="16px" viewBox="0 0 50 16" version="1.1" xmlns="http://www.w3.org/2000/svg" xmlns:xlink="http://www.w3.org/1999/xlink">
    <!-- Generator: Sketch 55.2 (78181) - https://sketchapp.com -->
    <title>Group 4</title>
    <desc>Created with Sketch.</desc>
    <g id="Page-1" stroke="none" stroke-width="1" fill="none" fill-rule="evenodd">
        <g id="Desktop-HD" transform="translate(-1296.000000, -1103.000000)">
            <g id="Group-4" transform="translate(1296.000000, 1103.000000)">
                <rect id="Rectangle" fill="#ADD088" x="0" y="0" width="50" height="16" rx="8"></rect>
                <path d="M9.828,12.11 C8.81599494,12.11 8.03316943,11.8515026 7.4795,11.3345 C6.92583057,10.8174974 6.63066685,10.0823381 6.594,9.129 C6.58666663,8.93099901 6.583,8.60833557 6.583,8.161 C6.583,7.70633106 6.58666663,7.37633436 6.594,7.171 C6.63066685,6.23232864 6.92766388,5.50083596 7.485,4.9765 C8.04233612,4.45216405 8.82332831,4.19 9.828,4.19 C10.4806699,4.19 11.0489976,4.30183222 11.533,4.5255 C12.0170024,4.74916779 12.392832,5.05533139 12.6605,5.444 C12.928168,5.83266861 13.0693333,6.26899758 13.084,6.753 L13.084,6.775 C13.084,6.83366696 13.0601669,6.88316647 13.0125,6.9235 C12.9648331,6.96383354 12.911667,6.984 12.853,6.984 L11.786,6.984 C11.6979996,6.984 11.6320002,6.96383354 11.588,6.9235 C11.5439998,6.88316647 11.5073335,6.81166718 11.478,6.709 C11.3679994,6.25433106 11.1773347,5.93350094 10.906,5.7465 C10.6346653,5.55949907 10.2753356,5.466 9.828,5.466 C8.77932809,5.466 8.23300022,6.0526608 8.189,7.226 C8.18166663,7.42400099 8.178,7.72833128 8.178,8.139 C8.178,8.54966872 8.18166663,8.86133227 8.189,9.074 C8.23300022,10.2473392 8.77932809,10.834 9.828,10.834 C10.2680022,10.834 10.6254986,10.7405009 10.9005,10.5535 C11.1755014,10.3664991 11.3679994,10.0456689 11.478,9.591 C11.5073335,9.48833282 11.5439998,9.41683354 11.588,9.3765 C11.6320002,9.33616647 11.6979996,9.316 11.786,9.316 L12.853,9.316 C12.9190003,9.316 12.9758331,9.33799978 13.0235,9.382 C13.0711669,9.42600022 13.0913334,9.48099967 13.084,9.547 C13.0693333,10.0310024 12.928168,10.4673314 12.6605,10.856 C12.392832,11.2446686 12.0170024,11.5508322 11.533,11.7745 C11.0489976,11.9981678 10.4806699,12.11 9.828,12.11 Z M14.657,12 C14.5836663,12 14.5213336,11.9743336 14.47,11.923 C14.4186664,11.8716664 14.393,11.8093337 14.393,11.736 L14.393,4.575 C14.393,4.49433293 14.4168331,4.42833359 14.4645,4.377 C14.5121669,4.32566641 14.5763329,4.3 14.657,4.3 L17.506,4.3 C18.4080045,4.3 19.1138308,4.50899791 19.6235,4.927 C20.1331692,5.34500209 20.388,5.93899615 20.388,6.709 C20.388,7.24433601 20.259668,7.69349819 20.003,8.0565 C19.746332,8.41950182 19.3870023,8.68166586 18.925,8.843 L20.52,11.648 C20.5420001,11.6920002 20.553,11.7323332 20.553,11.769 C20.553,11.8350003 20.5291669,11.8899998 20.4815,11.934 C20.4338331,11.9780002 20.380667,12 20.322,12 L19.31,12 C19.1926661,12 19.1010003,11.9725003 19.035,11.9175 C18.9689997,11.8624997 18.9103336,11.7910004 18.859,11.703 L17.451,9.096 L15.944,9.096 L15.944,11.736 C15.944,11.8093337 15.9183336,11.8716664 15.867,11.923 C15.8156664,11.9743336 15.7496671,12 15.669,12 L14.657,12 Z M17.473,7.842 C17.9130022,7.842 18.2429989,7.74483431 18.463,7.5505 C18.6830011,7.35616569 18.793,7.07200187 18.793,6.698 C18.793,6.32399813 18.6830011,6.03616767 18.463,5.8345 C18.2429989,5.63283233 17.9130022,5.532 17.473,5.532 L15.944,5.532 L15.944,7.842 L17.473,7.842 Z M22.071,12 C21.9976663,12 21.9353336,11.9743336 21.884,11.923 C21.8326664,11.8716664 21.807,11.8093337 21.807,11.736 L21.807,4.575 C21.807,4.49433293 21.8308331,4.42833359 21.8785,4.377 C21.9261669,4.32566641 21.9903329,4.3 22.071,4.3 L26.922,4.3 C27.0026671,4.3 27.0686664,4.32566641 27.12,4.377 C27.1713336,4.42833359 27.197,4.49433293 27.197,4.575 L27.197,5.312 C27.197,5.39266707 27.1713336,5.4568331 27.12,5.5045 C27.0686664,5.5521669 27.0026671,5.576 26.922,5.576 L23.314,5.576 L23.314,7.501 L26.68,7.501 C26.7606671,7.501 26.8266664,7.52666641 26.878,7.578 C26.9293336,7.62933359 26.955,7.69533293 26.955,7.776 L26.955,8.469 C26.955,8.54966707 26.9293336,8.6138331 26.878,8.6615 C26.8266664,8.70916691 26.7606671,8.733 26.68,8.733 L23.314,8.733 L23.314,10.724 L27.01,10.724 C27.0906671,10.724 27.1566664,10.7478331 27.208,10.7955 C27.2593336,10.8431669 27.285,10.9073329 27.285,10.988 L27.285,11.736 C27.285,11.8166671 27.2593336,11.8808331 27.208,11.9285 C27.1566664,11.9761669 27.0906671,12 27.01,12 L22.071,12 Z M28.924,12 C28.8506663,12 28.7883336,11.9743336 28.737,11.923 C28.6856664,11.8716664 28.66,11.8093337 28.66,11.736 L28.66,4.575 C28.66,4.49433293 28.6838331,4.42833359 28.7315,4.377 C28.7791669,4.32566641 28.8433329,4.3 28.924,4.3 L31.608,4.3 C33.7713442,4.3 34.8749998,5.29732336 34.919,7.292 C34.9336667,7.71733546 34.941,8.0033326 34.941,8.15 C34.941,8.28933403 34.9336667,8.57166454 34.919,8.997 C34.8896665,10.0236718 34.612836,10.7808309 34.0885,11.2685 C33.564164,11.7561691 32.7556721,12 31.663,12 L28.924,12 Z M31.608,10.724 C32.2166697,10.724 32.6566653,10.5883347 32.928,10.317 C33.1993347,10.0456653 33.3423333,9.59466982 33.357,8.964 C33.3716667,8.5239978 33.379,8.24900055 33.379,8.139 C33.379,8.02166608 33.3716667,7.75033546 33.357,7.325 C33.3423333,6.72366366 33.1920014,6.28183475 32.906,5.9995 C32.6199986,5.71716526 32.1690031,5.576 31.553,5.576 L30.211,5.576 L30.211,10.724 L31.608,10.724 Z M36.657,12 C36.5836663,12 36.5213336,11.9743336 36.47,11.923 C36.4186664,11.8716664 36.393,11.8093337 36.393,11.736 L36.393,4.564 C36.393,4.48333293 36.4186664,4.41916691 36.47,4.3715 C36.5213336,4.3238331 36.5836663,4.3 36.657,4.3 L37.713,4.3 C37.7936671,4.3 37.8578331,4.3238331 37.9055,4.3715 C37.9531669,4.41916691 37.977,4.48333293 37.977,4.564 L37.977,11.736 C37.977,11.8093337 37.9531669,11.8716664 37.9055,11.923 C37.8578331,11.9743336 37.7936671,12 37.713,12 L36.657,12 Z M41.651,12 C41.5776663,12 41.5153336,11.9743336 41.464,11.923 C41.4126664,11.8716664 41.387,11.8093337 41.387,11.736 L41.387,5.675 L39.352,5.675 C39.2786663,5.675 39.2163336,5.64933359 39.165,5.598 C39.1136664,5.54666641 39.088,5.48066707 39.088,5.4 L39.088,4.575 C39.088,4.49433293 39.1118331,4.42833359 39.1595,4.377 C39.2071669,4.32566641 39.2713329,4.3 39.352,4.3 L44.973,4.3 C45.0536671,4.3 45.1196664,4.32566641 45.171,4.377 C45.2223336,4.42833359 45.248,4.49433293 45.248,4.575 L45.248,5.4 C45.248,5.48066707 45.2223336,5.54666641 45.171,5.598 C45.1196664,5.64933359 45.0536671,5.675 44.973,5.675 L42.949,5.675 L42.949,11.736 C42.949,11.8093337 42.9251669,11.8716664 42.8775,11.923 C42.8298331,11.9743336 42.7656671,12 42.685,12 L41.651,12 Z" id="CREDIT" fill="#FFFFFF" fill-rule="nonzero"></path>
            </g>
        </g>
    </g>
</svg>